<?xml version="1.0" encoding="UTF-8"?>
<svg id="Layer_1" xmlns="http://www.w3.org/2000/svg" version="1.1" viewBox="0 0 421.6 347.9">
  <!-- Generator: Adobe Illustrator 29.0.0, SVG Export Plug-In . SVG Version: 2.1.0 Build 186)  -->
  <defs>
    <style>
      .st0 {
        fill: #fff;
        stroke: #fff;
        stroke-miterlimit: 10;
        stroke-width: 7px;
      }
    </style>
  </defs>
  <path class="st0" d="M140.8,344.4L4.2,285.4l-.7-80.2c.2-1.3,1.9-2.1,2.9-2.6,13.1-7.3,30.6-11.4,44-18.8,3.6-3.1.2-7.8,8.2-11.7s19.1-.8,26.8-3c11.3-3.2,23.8-11.6,35.4-15.1-2.8-10.1,11-14.2,19-13.9l.9-72.4,47.8-20.5c-.5-17.1,21.7-13.3,33.1-14.3l34.8-14.6c-1.5-15.7,22.6-16.3,33.1-13.4s12.4,5.3,11.2,11.9l35.6,16.1c12.6,1,31.5-2.7,33.5,14.6,14.2,6.9,30.9,11.7,44.8,18.8,1.6.8,2.4,1.6,3.4,3.1v79.8l-2,78.3-272.4,117.1h-3ZM262.7,16.2c9.3,4.7,25.9,6.9,32.7-2.2-8.3-7.8-22.5-6.3-32.2-1.7l-.5,3.9ZM295.4,22.3c-10.4,4-22.5,4.6-32.9,0v15.5c4.1,6.5,32.9,5.3,32.9-1v-14.5ZM256.5,38.8c-.9-4.2.6-10.9,0-15.5l-28.9,12c2.5,3.7,4.6,3.5,5,8.4s.5,23.4-1,26c-5.1,8.9-27.2,8.3-35.7,4.6s-7.3-4.5-7.3-5.7v-16.5l-38.9,17.9,129.2,54.5,128.2-54.5-1.4-2.1-36.5-14.9v14.5c0,9.8-42.2,15.4-44.8-2.1s-.8-22.9,1.9-26.6,3.6-1.7,4-3.7l-28.4-12c-1.4,5.1.6,10.5-1.4,15.5-5,12.7-41.7,10.6-44,0ZM203.4,38.5c-1.9.3-9.3,2.5-9.7,4.2,2.3,9.8,33.9,6.8,33.9,1-5.3-6.3-16.5-6.3-24.2-5.2ZM330.4,45.1c1.6,2.9,15.8,4.4,19.4,4.1s11.9-1.6,13.5-5.5c0-5.7-16.8-5.9-20.5-5.5s-14.8,2.5-12.3,6.9ZM227.6,51.2c-10.6,4.3-23.2,4.3-33.9,0v14.5c0,5.1,18,5.8,21.5,5.5s12.4-2.7,12.4-5.5v-14.5ZM363.2,51.2c-9.7,4.6-23.2,4.3-32.9,0v15.5c8.6,6.4,24.2,6.4,32.9,0v-15.5ZM275.5,129l-130.7-54.8v65.8c5.8-.8,17.9,2.5,19.7,8.7s-.1,4.2.4,5.1c1,1.7,31.9,12.5,36.1,15.3,8.4-.1,16.7-1.2,24.6,2.3,9.6,4.2,5.5,9.9,8,12l41.9,17.4v-71.8ZM412.1,74.2l-130.7,54.8v71.8l130.7-54.8v-71.8ZM136.5,145.2c-2.1.3-10.1,2.4-10.7,4.3-.7,3.3,3.9,4.6,6.5,5.3,6.1,1.7,16.2,1.9,22.1-.7,7.5-3.3,4.6-5.8-1.7-7.7s-11-1.9-16.2-1.2ZM412.1,152l-266.4,114.2v71.3l266.4-113.7v-71.8ZM158.7,158.9c-10.8,3.4-22.6,4.6-32.9-1v15.5c0,5.2,29.5,7.5,32.9,0v-14.5ZM52,203.3c-.8-3.9.6-10.2,0-14.5l-38.9,16.9,129.2,54.7,129.2-54.7-38.9-16.9v15.5c0,2.7-6.6,6.2-9,7-8.1,2.7-33.1,3.3-34.8-8s-.5-25.3,1-27.8,4.4-2.9,3.9-3.6l-28.9-12v14.5c0,1.2-3.4,4.5-4.7,5.3-8.4,5.6-29.1,6.1-36.6-1s-2.8-11.3-3.6-17.3.5-1.7-1.5-1.5l-27.5,12c1.1,2,3.5,2.1,4.9,4.6s1.8,22.8.9,26.6c-3.1,13.6-42,12.7-44.7.2ZM58.1,178c-.5.8-.1,2,.3,2.9,3.1,5.5,28.3,6.2,32.4-.6-2.6-8.8-30-6.9-32.7-2.3ZM208.4,174.2c-3.8.3-20,3.1-12.5,7.9s24.9,4.3,31.6-1.7c1.1-4.8-15.7-6.4-19.2-6.2ZM90.9,187.8c-11,3.9-22,4.2-32.9,0v16c10.8,5.2,22.1,5.2,32.9,0v-16ZM227.6,187.8c-11.2,4-22.7,4.1-33.9,0v14.5c8.5,7.4,25.4,7.4,33.9,0v-14.5ZM139.8,337.4v-71.3L9.1,209.8v71.3l130.7,56.3Z"/>
  <path class="st0" d="M271.2,62.5c7.8-1,28.8-.6,29.7,10.2s-1.5,16.6-.5,23.9c-4.8,12.5-37.6,11.9-42.7,1.9s-1.8-23.7-.7-27.3,9.5-8,14.3-8.7ZM272.2,67.5c-2.1.3-9.1,2.4-9.7,4.3-.7,3.3,4,4.6,6.5,5.3,6.1,1.7,16.2,1.9,22.1-.7s6.4-2.8,3.3-5.7-17-4-22.2-3.2ZM295.4,80.2c-10.5,5.5-23.2,4.9-33.9,0v15.5c9.2,6.8,25,7.6,33.9,0v-15.5Z"/>
  <path class="st0" d="M162.4,236.4c-6.7,7.4-36.8,7.6-41.1-1.7s-1.2-22.6-1-25.4c1.1-14.5,38.9-14.1,43.6-3.2,1.7,4,1.5,27-1.6,30.4ZM158.6,206.9c-2.6-4.2-30.5-6.4-32.7,2.2.6,3.8,14.1,5.7,17.4,5.7s18.7-2.3,15.3-7.9ZM159.7,216.8c-10.9,3.9-23,4.6-33.9,0v15.5c4.2,6.9,33.9,5.3,33.9-1v-14.5Z"/>
</svg>