<?xml version="1.0" encoding="UTF-8"?>
<svg id="Layer_1" xmlns="http://www.w3.org/2000/svg" xmlns:xlink="http://www.w3.org/1999/xlink" version="1.1" viewBox="0 0 500 500">
  <!-- Generator: Adobe Illustrator 29.0.0, SVG Export Plug-In . SVG Version: 2.1.0 Build 186)  -->
  <defs>
    <style>
      .st0 {
        fill: none;
      }

      .st1 {
        clip-path: url(#clippath-1);
      }

      .st2 {
        clip-path: url(#clippath-3);
      }

      .st3 {
        clip-path: url(#clippath-4);
      }

      .st4 {
        clip-path: url(#clippath-2);
      }

      .st5 {
        clip-path: url(#clippath-6);
      }

      .st6 {
        clip-path: url(#clippath-5);
      }

      .st7 {
        fill: #fff;
      }

      .st8 {
        clip-path: url(#clippath);
      }
    </style>
    <clipPath id="clippath">
      <path class="st0" d="M352,34c0,3.3,2.7,6,6,6h0c3.3,0,6-2.7,6-6h0c0-3.3-2.7-6-6-6h0c-3.3,0-6,2.7-6,6ZM292,34c0,3.3,2.7,6,6,6h0c3.3,0,6-2.7,6-6h0c0-3.3-2.7-6-6-6h0c-3.3,0-6,2.7-6,6ZM280,34c0,3.3,2.7,6,6,6h0c3.3,0,6-2.7,6-6h0c0-3.3-2.7-6-6-6h0c-3.3,0-6,2.7-6,6ZM256,34c0,3.3,2.7,6,6,6h0c-3.3,0-6,2.7-6,6h0c0,3.3,2.7,6,6,6h0c-3.3,0-6,2.7-6,6h0c0,3.3,2.7,6,6,6h0c-3.3,0-6,2.7-6,6h0c0,3.3,2.7,6,6,6h0c3.3,0,6-2.7,6-6h0c0-3.3-2.7-6-6-6h0c3.3,0,6-2.7,6-6h0c0-3.3-2.7-6-6-6h0c3.3,0,6-2.7,6-6h0c0-3.3-2.7-6-6-6h0c3.3,0,6-2.7,6-6h0c0-3.3-2.7-6-6-6h0c-3.3,0-6,2.7-6,6ZM244,34c0,3.3,2.7,6,6,6h0c-3.3,0-6,2.7-6,6h0c0,3.3,2.7,6,6,6h0c3.3,0,6-2.7,6-6h0c0-3.3-2.7-6-6-6h0c3.3,0,6-2.7,6-6h0c0-3.3-2.7-6-6-6h0c-3.3,0-6,2.7-6,6ZM196,34c0,3.3,2.7,6,6,6h0c-3.3,0-6,2.7-6,6h0c0,3.3,2.7,6,6,6h0c3.3,0,6-2.7,6-6h0c0-3.3-2.7-6-6-6h0c3.3,0,6-2.7,6-6h0c0-3.3-2.7-6-6-6h0c-3.3,0-6,2.7-6,6ZM172,34c0,3.3,2.7,6,6,6h0c-3.3,0-6,2.7-6,6h0c0,3.3,2.7,6,6,6h0c-3.3,0-6,2.7-6,6h0c0,3.3,2.7,6,6,6h0c-3.3,0-6,2.7-6,6h0c0,3.3,2.7,6,6,6h0c3.3,0,6-2.7,6-6h0c0-3.3-2.7-6-6-6h0c3.3,0,6-2.7,6-6h0c0-3.3-2.7-6-6-6h0c3.3,0,6-2.7,6-6h0c0-3.3-2.7-6-6-6h0c3.3,0,6-2.7,6-6h0c0-3.3-2.7-6-6-6h0c-3.3,0-6,2.7-6,6ZM136,34c0,3.3,2.7,6,6,6h0c3.3,0,6-2.7,6-6h0c0-3.3-2.7-6-6-6h0c-3.3,0-6,2.7-6,6ZM340,46c0,3.3,2.7,6,6,6h0c-3.3,0-6,2.7-6,6h0c0,3.3,2.7,6,6,6h0c-3.3,0-6,2.7-6,6h0c0,3.3,2.7,6,6,6h0c-3.3,0-6,2.7-6,6h0c0,3.3,2.7,6,6,6h0c3.3,0,6-2.7,6-6h0c0-3.3-2.7-6-6-6h0c3.3,0,6-2.7,6-6h0c0-3.3-2.7-6-6-6h0c3.3,0,6-2.7,6-6h0c0-3.3-2.7-6-6-6h0c3.3,0,6-2.7,6-6h0c0-3.3-2.7-6-6-6h0c-3.3,0-6,2.7-6,6ZM328,46c0,3.3,2.7,6,6,6h0c-3.3,0-6,2.7-6,6h0c0,3.3,2.7,6,6,6h0c-3.3,0-6,2.7-6,6h0c0,3.3,2.7,6,6,6h0c-3.3,0-6,2.7-6,6h0c0,3.3,2.7,6,6,6h0c3.3,0,6-2.7,6-6h0c0-3.3-2.7-6-6-6h0c3.3,0,6-2.7,6-6h0c0-3.3-2.7-6-6-6h0c3.3,0,6-2.7,6-6h0c0-3.3-2.7-6-6-6h0c3.3,0,6-2.7,6-6h0c0-3.3-2.7-6-6-6h0c-3.3,0-6,2.7-6,6ZM304,46c0,3.3,2.7,6,6,6h0c-3.3,0-6,2.7-6,6h0c0,3.3,2.7,6,6,6h0c-3.3,0-6,2.7-6,6h0c0,3.3,2.7,6,6,6h0c3.3,0,6-2.7,6-6h0c0-3.3-2.7-6-6-6h0c3.3,0,6-2.7,6-6h0c0-3.3-2.7-6-6-6h0c3.3,0,6-2.7,6-6h0c0-3.3-2.7-6-6-6h0c-3.3,0-6,2.7-6,6ZM232,46c0,3.3,2.7,6,6,6h0c3.3,0,6-2.7,6-6h0c0-3.3-2.7-6-6-6h0c-3.3,0-6,2.7-6,6ZM220,46c0,3.3,2.7,6,6,6h0c3.3,0,6-2.7,6-6h0c0-3.3-2.7-6-6-6h0c-3.3,0-6,2.7-6,6ZM208,46c0,3.3,2.7,6,6,6h0c-3.3,0-6,2.7-6,6h0c0,3.3,2.7,6,6,6h0c-3.3,0-6,2.7-6,6h0c0,3.3,2.7,6,6,6h0c-3.3,0-6,2.7-6,6h0c0,3.3,2.7,6,6,6h0c3.3,0,6-2.7,6-6h0c0-3.3-2.7-6-6-6h0c3.3,0,6-2.7,6-6h0c0-3.3-2.7-6-6-6h0c3.3,0,6-2.7,6-6h0c0-3.3-2.7-6-6-6h0c3.3,0,6-2.7,6-6h0c0-3.3-2.7-6-6-6h0c-3.3,0-6,2.7-6,6ZM184,46c0,3.3,2.7,6,6,6h0c3.3,0,6-2.7,6-6h0c0-3.3-2.7-6-6-6h0c-3.3,0-6,2.7-6,6ZM160,46c0,3.3,2.7,6,6,6h0c3.3,0,6-2.7,6-6h0c0-3.3-2.7-6-6-6h0c-3.3,0-6,2.7-6,6ZM148,46c0,3.3,2.7,6,6,6h0c-3.3,0-6,2.7-6,6h0c0,3.3,2.7,6,6,6h0c3.3,0,6-2.7,6-6h0c0-3.3-2.7-6-6-6h0c3.3,0,6-2.7,6-6h0c0-3.3-2.7-6-6-6h0c-3.3,0-6,2.7-6,6ZM124,46c0,3.3,2.7,6,6,6h0c-3.3,0-6,2.7-6,6h0c0,3.3,2.7,6,6,6h0c-3.3,0-6,2.7-6,6h0c0,3.3,2.7,6,6,6h0c3.3,0,6-2.7,6-6h0c0-3.3-2.7-6-6-6h0c3.3,0,6-2.7,6-6h0c0-3.3-2.7-6-6-6h0c3.3,0,6-2.7,6-6h0c0-3.3-2.7-6-6-6h0c-3.3,0-6,2.7-6,6ZM364,58c0,3.3,2.7,6,6,6h0c3.3,0,6-2.7,6-6h0c0-3.3-2.7-6-6-6h0c-3.3,0-6,2.7-6,6ZM292,58c0,3.3,2.7,6,6,6h0c-3.3,0-6,2.7-6,6h0c0,3.3,2.7,6,6,6h0c-3.3,0-6,2.7-6,6h0c0,3.3,2.7,6,6,6h0c3.3,0,6-2.7,6-6h0c0-3.3-2.7-6-6-6h0c3.3,0,6-2.7,6-6h0c0-3.3-2.7-6-6-6h0c3.3,0,6-2.7,6-6h0c0-3.3-2.7-6-6-6h0c-3.3,0-6,2.7-6,6ZM280,58c0,3.3,2.7,6,6,6h0c3.3,0,6-2.7,6-6h0c0-3.3-2.7-6-6-6h0c-3.3,0-6,2.7-6,6ZM268,58c0,3.3,2.7,6,6,6h0c3.3,0,6-2.7,6-6h0c0-3.3-2.7-6-6-6h0c-3.3,0-6,2.7-6,6ZM136,58c0,3.3,2.7,6,6,6h0c3.3,0,6-2.7,6-6h0c0-3.3-2.7-6-6-6h0c-3.3,0-6,2.7-6,6ZM316,70c0,3.3,2.7,6,6,6h0c3.3,0,6-2.7,6-6h0c0-3.3-2.7-6-6-6h0c-3.3,0-6,2.7-6,6ZM244,70c0,3.3,2.7,6,6,6h0c3.3,0,6-2.7,6-6h0c0-3.3-2.7-6-6-6h0c-3.3,0-6,2.7-6,6ZM184,70c0,3.3,2.7,6,6,6h0c-3.3,0-6,2.7-6,6h0c0,3.3,2.7,6,6,6h0c3.3,0,6-2.7,6-6h0c0-3.3-2.7-6-6-6h0c3.3,0,6-2.7,6-6h0c0-3.3-2.7-6-6-6h0c-3.3,0-6,2.7-6,6ZM364,82c0,3.3,2.7,6,6,6h0c-3.3,0-6,2.7-6,6h0c0,3.3,2.7,6,6,6h0c-3.3,0-6,2.7-6,6h0c0,3.3,2.7,6,6,6h0c3.3,0,6-2.7,6-6h0c0-3.3-2.7-6-6-6h0c3.3,0,6-2.7,6-6h0c0-3.3-2.7-6-6-6h0c3.3,0,6-2.7,6-6h0c0-3.3-2.7-6-6-6h0c-3.3,0-6,2.7-6,6ZM352,82c0,3.3,2.7,6,6,6h0c3.3,0,6-2.7,6-6h0c0-3.3-2.7-6-6-6h0c-3.3,0-6,2.7-6,6ZM280,82c0,3.3,2.7,6,6,6h0c-3.3,0-6,2.7-6,6h0c0,3.3,2.7,6,6,6h0c3.3,0,6-2.7,6-6h0c0-3.3-2.7-6-6-6h0c3.3,0,6-2.7,6-6h0c0-3.3-2.7-6-6-6h0c-3.3,0-6,2.7-6,6ZM268,82c0,3.3,2.7,6,6,6h0c3.3,0,6-2.7,6-6h0c0-3.3-2.7-6-6-6h0c-3.3,0-6,2.7-6,6ZM220,82c0,3.3,2.7,6,6,6h0c-3.3,0-6,2.7-6,6h0c0,3.3,2.7,6,6,6h0c-3.3,0-6,2.7-6,6h0c0,3.3,2.7,6,6,6h0c3.3,0,6-2.7,6-6h0c0-3.3-2.7-6-6-6h0c3.3,0,6-2.7,6-6h0c0-3.3-2.7-6-6-6h0c3.3,0,6-2.7,6-6h0c0-3.3-2.7-6-6-6h0c-3.3,0-6,2.7-6,6ZM196,82c0,3.3,2.7,6,6,6h0c3.3,0,6-2.7,6-6h0c0-3.3-2.7-6-6-6h0c-3.3,0-6,2.7-6,6ZM160,82c0,3.3,2.7,6,6,6h0c3.3,0,6-2.7,6-6h0c0-3.3-2.7-6-6-6h0c-3.3,0-6,2.7-6,6ZM316,94c0,3.3,2.7,6,6,6h0c-3.3,0-6,2.7-6,6h0c0,3.3,2.7,6,6,6h0c3.3,0,6-2.7,6-6h0c0-3.3-2.7-6-6-6h0c3.3,0,6-2.7,6-6h0c0-3.3-2.7-6-6-6h0c-3.3,0-6,2.7-6,6ZM304,94c0,3.3,2.7,6,6,6h0c3.3,0,6-2.7,6-6h0c0-3.3-2.7-6-6-6h0c-3.3,0-6,2.7-6,6ZM256,94c0,3.3,2.7,6,6,6h0c3.3,0,6-2.7,6-6h0c0-3.3-2.7-6-6-6h0c-3.3,0-6,2.7-6,6ZM148,94c0,3.3,2.7,6,6,6h0c-3.3,0-6,2.7-6,6h0c0,3.3,2.7,6,6,6h0c-3.3,0-6,2.7-6,6h0c0,3.3,2.7,6,6,6h0c3.3,0,6-2.7,6-6h0c0-3.3-2.7-6-6-6h0c3.3,0,6-2.7,6-6h0c0-3.3-2.7-6-6-6h0c3.3,0,6-2.7,6-6h0c0-3.3-2.7-6-6-6h0c-3.3,0-6,2.7-6,6ZM136,94c0,3.3,2.7,6,6,6h0c3.3,0,6-2.7,6-6h0c0-3.3-2.7-6-6-6h0c-3.3,0-6,2.7-6,6ZM124,94c0,3.3,2.7,6,6,6h0c-3.3,0-6,2.7-6,6h0c0,3.3,2.7,6,6,6h0c3.3,0,6-2.7,6-6h0c0-3.3-2.7-6-6-6h0c3.3,0,6-2.7,6-6h0c0-3.3-2.7-6-6-6h0c-3.3,0-6,2.7-6,6ZM340,106c0,3.3,2.7,6,6,6h0c3.3,0,6-2.7,6-6h0c0-3.3-2.7-6-6-6h0c-3.3,0-6,2.7-6,6ZM292,106c0,3.3,2.7,6,6,6h0c3.3,0,6-2.7,6-6h0c0-3.3-2.7-6-6-6h0c-3.3,0-6,2.7-6,6ZM268,106c0,3.3,2.7,6,6,6h0c3.3,0,6-2.7,6-6h0c0-3.3-2.7-6-6-6h0c-3.3,0-6,2.7-6,6ZM244,106c0,3.3,2.7,6,6,6h0c-3.3,0-6,2.7-6,6h0c0,3.3,2.7,6,6,6h0c-3.3,0-6,2.7-6,6h0c0,3.3,2.7,6,6,6h0c-3.3,0-6,2.7-6,6h0c0,3.3,2.7,6,6,6h0c3.3,0,6-2.7,6-6h0c0-3.3-2.7-6-6-6h0c3.3,0,6-2.7,6-6h0c0-3.3-2.7-6-6-6h0c3.3,0,6-2.7,6-6h0c0-3.3-2.7-6-6-6h0c3.3,0,6-2.7,6-6h0c0-3.3-2.7-6-6-6h0c-3.3,0-6,2.7-6,6ZM196,106c0,3.3,2.7,6,6,6h0c3.3,0,6-2.7,6-6h0c0-3.3-2.7-6-6-6h0c-3.3,0-6,2.7-6,6ZM172,106c0,3.3,2.7,6,6,6h0c-3.3,0-6,2.7-6,6h0c0,3.3,2.7,6,6,6h0c3.3,0,6-2.7,6-6h0c0-3.3-2.7-6-6-6h0c3.3,0,6-2.7,6-6h0c0-3.3-2.7-6-6-6h0c-3.3,0-6,2.7-6,6ZM352,118c0,3.3,2.7,6,6,6h0c-3.3,0-6,2.7-6,6h0c0,3.3,2.7,6,6,6h0c-3.3,0-6,2.7-6,6h0c0,3.3,2.7,6,6,6h0c-3.3,0-6,2.7-6,6h0c0,3.3,2.7,6,6,6h0c-3.3,0-6,2.7-6,6h0c0,3.3,2.7,6,6,6h0c-3.3,0-6,2.7-6,6h0c0,3.3,2.7,6,6,6h0c-3.3,0-6,2.7-6,6h0c0,3.3,2.7,6,6,6h0c3.3,0,6-2.7,6-6h0c0-3.3-2.7-6-6-6h0c3.3,0,6-2.7,6-6h0c0-3.3-2.7-6-6-6h0c3.3,0,6-2.7,6-6h0c0-3.3-2.7-6-6-6h0c3.3,0,6-2.7,6-6h0c0-3.3-2.7-6-6-6h0c3.3,0,6-2.7,6-6h0c0-3.3-2.7-6-6-6h0c3.3,0,6-2.7,6-6h0c0-3.3-2.7-6-6-6h0c3.3,0,6-2.7,6-6h0c0-3.3-2.7-6-6-6h0c-3.3,0-6,2.7-6,6ZM304,118c0,3.3,2.7,6,6,6h0c-3.3,0-6,2.7-6,6h0c0,3.3,2.7,6,6,6h0c3.3,0,6-2.7,6-6h0c0-3.3-2.7-6-6-6h0c3.3,0,6-2.7,6-6h0c0-3.3-2.7-6-6-6h0c-3.3,0-6,2.7-6,6ZM256,118c0,3.3,2.7,6,6,6h0c3.3,0,6-2.7,6-6h0c0-3.3-2.7-6-6-6h0c-3.3,0-6,2.7-6,6ZM448,130c0,3.3,2.7,6,6,6h0c-3.3,0-6,2.7-6,6h0c0,3.3,2.7,6,6,6h0c3.3,0,6-2.7,6-6h0c0-3.3-2.7-6-6-6h0c3.3,0,6-2.7,6-6h0c0-3.3-2.7-6-6-6h0c-3.3,0-6,2.7-6,6ZM436,130c0,3.3,2.7,6,6,6h0c-3.3,0-6,2.7-6,6h0c0,3.3,2.7,6,6,6h0c-3.3,0-6,2.7-6,6h0c0,3.3,2.7,6,6,6h0c-3.3,0-6,2.7-6,6h0c0,3.3,2.7,6,6,6h0c-3.3,0-6,2.7-6,6h0c0,3.3,2.7,6,6,6h0c-3.3,0-6,2.7-6,6h0c0,3.3,2.7,6,6,6h0c3.3,0,6-2.7,6-6h0c0-3.3-2.7-6-6-6h0c3.3,0,6-2.7,6-6h0c0-3.3-2.7-6-6-6h0c3.3,0,6-2.7,6-6h0c0-3.3-2.7-6-6-6h0c3.3,0,6-2.7,6-6h0c0-3.3-2.7-6-6-6h0c3.3,0,6-2.7,6-6h0c0-3.3-2.7-6-6-6h0c3.3,0,6-2.7,6-6h0c0-3.3-2.7-6-6-6h0c-3.3,0-6,2.7-6,6ZM424,130c0,3.3,2.7,6,6,6h0c-3.3,0-6,2.7-6,6h0c0,3.3,2.7,6,6,6h0c3.3,0,6-2.7,6-6h0c0-3.3-2.7-6-6-6h0c3.3,0,6-2.7,6-6h0c0-3.3-2.7-6-6-6h0c-3.3,0-6,2.7-6,6ZM400,130c0,3.3,2.7,6,6,6h0c3.3,0,6-2.7,6-6h0c0-3.3-2.7-6-6-6h0c-3.3,0-6,2.7-6,6ZM376,130c0,3.3,2.7,6,6,6h0c-3.3,0-6,2.7-6,6h0c0,3.3,2.7,6,6,6h0c3.3,0,6-2.7,6-6h0c0-3.3-2.7-6-6-6h0c3.3,0,6-2.7,6-6h0c0-3.3-2.7-6-6-6h0c-3.3,0-6,2.7-6,6ZM328,130c0,3.3,2.7,6,6,6h0c-3.3,0-6,2.7-6,6h0c0,3.3,2.7,6,6,6h0c-3.3,0-6,2.7-6,6h0c0,3.3,2.7,6,6,6h0c-3.3,0-6,2.7-6,6h0c0,3.3,2.7,6,6,6h0c3.3,0,6-2.7,6-6h0c0-3.3-2.7-6-6-6h0c3.3,0,6-2.7,6-6h0c0-3.3-2.7-6-6-6h0c3.3,0,6-2.7,6-6h0c0-3.3-2.7-6-6-6h0c3.3,0,6-2.7,6-6h0c0-3.3-2.7-6-6-6h0c-3.3,0-6,2.7-6,6ZM292,130c0,3.3,2.7,6,6,6h0c3.3,0,6-2.7,6-6h0c0-3.3-2.7-6-6-6h0c-3.3,0-6,2.7-6,6ZM280,130c0,3.3,2.7,6,6,6h0c3.3,0,6-2.7,6-6h0c0-3.3-2.7-6-6-6h0c-3.3,0-6,2.7-6,6ZM268,130c0,3.3,2.7,6,6,6h0c3.3,0,6-2.7,6-6h0c0-3.3-2.7-6-6-6h0c-3.3,0-6,2.7-6,6ZM232,130c0,3.3,2.7,6,6,6h0c3.3,0,6-2.7,6-6h0c0-3.3-2.7-6-6-6h0c-3.3,0-6,2.7-6,6ZM208,130c0,3.3,2.7,6,6,6h0c-3.3,0-6,2.7-6,6h0c0,3.3,2.7,6,6,6h0c-3.3,0-6,2.7-6,6h0c0,3.3,2.7,6,6,6h0c3.3,0,6-2.7,6-6h0c0-3.3-2.7-6-6-6h0c3.3,0,6-2.7,6-6h0c0-3.3-2.7-6-6-6h0c3.3,0,6-2.7,6-6h0c0-3.3-2.7-6-6-6h0c-3.3,0-6,2.7-6,6ZM196,130c0,3.3,2.7,6,6,6h0c-3.3,0-6,2.7-6,6h0c0,3.3,2.7,6,6,6h0c3.3,0,6-2.7,6-6h0c0-3.3-2.7-6-6-6h0c3.3,0,6-2.7,6-6h0c0-3.3-2.7-6-6-6h0c-3.3,0-6,2.7-6,6ZM184,130c0,3.3,2.7,6,6,6h0c-3.3,0-6,2.7-6,6h0c0,3.3,2.7,6,6,6h0c-3.3,0-6,2.7-6,6h0c0,3.3,2.7,6,6,6h0c3.3,0,6-2.7,6-6h0c0-3.3-2.7-6-6-6h0c3.3,0,6-2.7,6-6h0c0-3.3-2.7-6-6-6h0c3.3,0,6-2.7,6-6h0c0-3.3-2.7-6-6-6h0c-3.3,0-6,2.7-6,6ZM160,130c0,3.3,2.7,6,6,6h0c3.3,0,6-2.7,6-6h0c0-3.3-2.7-6-6-6h0c-3.3,0-6,2.7-6,6ZM136,130c0,3.3,2.7,6,6,6h0c3.3,0,6-2.7,6-6h0c0-3.3-2.7-6-6-6h0c-3.3,0-6,2.7-6,6ZM100,130c0,3.3,2.7,6,6,6h0c3.3,0,6-2.7,6-6h0c0-3.3-2.7-6-6-6h0c-3.3,0-6,2.7-6,6ZM52,130c0,3.3,2.7,6,6,6h0c-3.3,0-6,2.7-6,6h0c0,3.3,2.7,6,6,6h0c-3.3,0-6,2.7-6,6h0c0,3.3,2.7,6,6,6h0c-3.3,0-6,2.7-6,6h0c0,3.3,2.7,6,6,6h0c3.3,0,6-2.7,6-6h0c0-3.3-2.7-6-6-6h0c3.3,0,6-2.7,6-6h0c0-3.3-2.7-6-6-6h0c3.3,0,6-2.7,6-6h0c0-3.3-2.7-6-6-6h0c3.3,0,6-2.7,6-6h0c0-3.3-2.7-6-6-6h0c-3.3,0-6,2.7-6,6ZM40,130c0,3.3,2.7,6,6,6h0c-3.3,0-6,2.7-6,6h0c0,3.3,2.7,6,6,6h0c3.3,0,6-2.7,6-6h0c0-3.3-2.7-6-6-6h0c3.3,0,6-2.7,6-6h0c0-3.3-2.7-6-6-6h0c-3.3,0-6,2.7-6,6ZM460,142c0,3.3,2.7,6,6,6h0c3.3,0,6-2.7,6-6h0c0-3.3-2.7-6-6-6h0c-3.3,0-6,2.7-6,6ZM412,142c0,3.3,2.7,6,6,6h0c-3.3,0-6,2.7-6,6h0c0,3.3,2.7,6,6,6h0c3.3,0,6-2.7,6-6h0c0-3.3-2.7-6-6-6h0c3.3,0,6-2.7,6-6h0c0-3.3-2.7-6-6-6h0c-3.3,0-6,2.7-6,6ZM388,142c0,3.3,2.7,6,6,6h0c3.3,0,6-2.7,6-6h0c0-3.3-2.7-6-6-6h0c-3.3,0-6,2.7-6,6ZM316,142c0,3.3,2.7,6,6,6h0c3.3,0,6-2.7,6-6h0c0-3.3-2.7-6-6-6h0c-3.3,0-6,2.7-6,6ZM256,142c0,3.3,2.7,6,6,6h0c3.3,0,6-2.7,6-6h0c0-3.3-2.7-6-6-6h0c-3.3,0-6,2.7-6,6ZM172,142c0,3.3,2.7,6,6,6h0c-3.3,0-6,2.7-6,6h0c0,3.3,2.7,6,6,6h0c3.3,0,6-2.7,6-6h0c0-3.3-2.7-6-6-6h0c3.3,0,6-2.7,6-6h0c0-3.3-2.7-6-6-6h0c-3.3,0-6,2.7-6,6ZM88,142c0,3.3,2.7,6,6,6h0c3.3,0,6-2.7,6-6h0c0-3.3-2.7-6-6-6h0c-3.3,0-6,2.7-6,6ZM64,142c0,3.3,2.7,6,6,6h0c3.3,0,6-2.7,6-6h0c0-3.3-2.7-6-6-6h0c-3.3,0-6,2.7-6,6ZM400,154c0,3.3,2.7,6,6,6h0c-3.3,0-6,2.7-6,6h0c0,3.3,2.7,6,6,6h0c-3.3,0-6,2.7-6,6h0c0,3.3,2.7,6,6,6h0c3.3,0,6-2.7,6-6h0c0-3.3-2.7-6-6-6h0c3.3,0,6-2.7,6-6h0c0-3.3-2.7-6-6-6h0c3.3,0,6-2.7,6-6h0c0-3.3-2.7-6-6-6h0c-3.3,0-6,2.7-6,6ZM304,154c0,3.3,2.7,6,6,6h0c3.3,0,6-2.7,6-6h0c0-3.3-2.7-6-6-6h0c-3.3,0-6,2.7-6,6ZM292,154c0,3.3,2.7,6,6,6h0c-3.3,0-6,2.7-6,6h0c0,3.3,2.7,6,6,6h0c3.3,0,6-2.7,6-6h0c0-3.3-2.7-6-6-6h0c3.3,0,6-2.7,6-6h0c0-3.3-2.7-6-6-6h0c-3.3,0-6,2.7-6,6ZM268,154c0,3.3,2.7,6,6,6h0c3.3,0,6-2.7,6-6h0c0-3.3-2.7-6-6-6h0c-3.3,0-6,2.7-6,6ZM232,154c0,3.3,2.7,6,6,6h0c-3.3,0-6,2.7-6,6h0c0,3.3,2.7,6,6,6h0c-3.3,0-6,2.7-6,6h0c0,3.3,2.7,6,6,6h0c3.3,0,6-2.7,6-6h0c0-3.3-2.7-6-6-6h0c3.3,0,6-2.7,6-6h0c0-3.3-2.7-6-6-6h0c3.3,0,6-2.7,6-6h0c0-3.3-2.7-6-6-6h0c-3.3,0-6,2.7-6,6ZM220,154c0,3.3,2.7,6,6,6h0c3.3,0,6-2.7,6-6h0c0-3.3-2.7-6-6-6h0c-3.3,0-6,2.7-6,6ZM160,154c0,3.3,2.7,6,6,6h0c-3.3,0-6,2.7-6,6h0c0,3.3,2.7,6,6,6h0c-3.3,0-6,2.7-6,6h0c0,3.3,2.7,6,6,6h0c3.3,0,6-2.7,6-6h0c0-3.3-2.7-6-6-6h0c3.3,0,6-2.7,6-6h0c0-3.3-2.7-6-6-6h0c3.3,0,6-2.7,6-6h0c0-3.3-2.7-6-6-6h0c-3.3,0-6,2.7-6,6ZM148,154c0,3.3,2.7,6,6,6h0c3.3,0,6-2.7,6-6h0c0-3.3-2.7-6-6-6h0c-3.3,0-6,2.7-6,6ZM136,154c0,3.3,2.7,6,6,6h0c3.3,0,6-2.7,6-6h0c0-3.3-2.7-6-6-6h0c-3.3,0-6,2.7-6,6ZM124,154c0,3.3,2.7,6,6,6h0c-3.3,0-6,2.7-6,6h0c0,3.3,2.7,6,6,6h0c3.3,0,6-2.7,6-6h0c0-3.3-2.7-6-6-6h0c3.3,0,6-2.7,6-6h0c0-3.3-2.7-6-6-6h0c-3.3,0-6,2.7-6,6ZM112,154c0,3.3,2.7,6,6,6h0c3.3,0,6-2.7,6-6h0c0-3.3-2.7-6-6-6h0c-3.3,0-6,2.7-6,6ZM100,154c0,3.3,2.7,6,6,6h0c3.3,0,6-2.7,6-6h0c0-3.3-2.7-6-6-6h0c-3.3,0-6,2.7-6,6ZM28,154c0,3.3,2.7,6,6,6h0c-3.3,0-6,2.7-6,6h0c0,3.3,2.7,6,6,6h0c3.3,0,6-2.7,6-6h0c0-3.3-2.7-6-6-6h0c3.3,0,6-2.7,6-6h0c0-3.3-2.7-6-6-6h0c-3.3,0-6,2.7-6,6ZM460,166c0,3.3,2.7,6,6,6h0c3.3,0,6-2.7,6-6h0c0-3.3-2.7-6-6-6h0c-3.3,0-6,2.7-6,6ZM424,166c0,3.3,2.7,6,6,6h0c3.3,0,6-2.7,6-6h0c0-3.3-2.7-6-6-6h0c-3.3,0-6,2.7-6,6ZM376,166c0,3.3,2.7,6,6,6h0c-3.3,0-6,2.7-6,6h0c0,3.3,2.7,6,6,6h0c-3.3,0-6,2.7-6,6h0c0,3.3,2.7,6,6,6h0c-3.3,0-6,2.7-6,6h0c0,3.3,2.7,6,6,6h0c-3.3,0-6,2.7-6,6h0c0,3.3,2.7,6,6,6h0c-3.3,0-6,2.7-6,6h0c0,3.3,2.7,6,6,6h0c-3.3,0-6,2.7-6,6h0c0,3.3,2.7,6,6,6h0c-3.3,0-6,2.7-6,6h0c0,3.3,2.7,6,6,6h0c-3.3,0-6,2.7-6,6h0c0,3.3,2.7,6,6,6h0c-3.3,0-6,2.7-6,6h0c0,3.3,2.7,6,6,6h0c3.3,0,6-2.7,6-6h0c0-3.3-2.7-6-6-6h0c3.3,0,6-2.7,6-6h0c0-3.3-2.7-6-6-6h0c3.3,0,6-2.7,6-6h0c0-3.3-2.7-6-6-6h0c3.3,0,6-2.7,6-6h0c0-3.3-2.7-6-6-6h0c3.3,0,6-2.7,6-6h0c0-3.3-2.7-6-6-6h0c3.3,0,6-2.7,6-6h0c0-3.3-2.7-6-6-6h0c3.3,0,6-2.7,6-6h0c0-3.3-2.7-6-6-6h0c3.3,0,6-2.7,6-6h0c0-3.3-2.7-6-6-6h0c3.3,0,6-2.7,6-6h0c0-3.3-2.7-6-6-6h0c3.3,0,6-2.7,6-6h0c0-3.3-2.7-6-6-6h0c-3.3,0-6,2.7-6,6ZM340,166c0,3.3,2.7,6,6,6h0c-3.3,0-6,2.7-6,6h0c0,3.3,2.7,6,6,6h0c-3.3,0-6,2.7-6,6h0c0,3.3,2.7,6,6,6h0c3.3,0,6-2.7,6-6h0c0-3.3-2.7-6-6-6h0c3.3,0,6-2.7,6-6h0c0-3.3-2.7-6-6-6h0c3.3,0,6-2.7,6-6h0c0-3.3-2.7-6-6-6h0c-3.3,0-6,2.7-6,6ZM280,166c0,3.3,2.7,6,6,6h0c3.3,0,6-2.7,6-6h0c0-3.3-2.7-6-6-6h0c-3.3,0-6,2.7-6,6ZM256,166c0,3.3,2.7,6,6,6h0c3.3,0,6-2.7,6-6h0c0-3.3-2.7-6-6-6h0c-3.3,0-6,2.7-6,6ZM64,166c0,3.3,2.7,6,6,6h0c3.3,0,6-2.7,6-6h0c0-3.3-2.7-6-6-6h0c-3.3,0-6,2.7-6,6ZM448,178c0,3.3,2.7,6,6,6h0c3.3,0,6-2.7,6-6h0c0-3.3-2.7-6-6-6h0c-3.3,0-6,2.7-6,6ZM304,178c0,3.3,2.7,6,6,6h0c-3.3,0-6,2.7-6,6h0c0,3.3,2.7,6,6,6h0c3.3,0,6-2.7,6-6h0c0-3.3-2.7-6-6-6h0c3.3,0,6-2.7,6-6h0c0-3.3-2.7-6-6-6h0c-3.3,0-6,2.7-6,6ZM268,178c0,3.3,2.7,6,6,6h0c-3.3,0-6,2.7-6,6h0c0,3.3,2.7,6,6,6h0c3.3,0,6-2.7,6-6h0c0-3.3-2.7-6-6-6h0c3.3,0,6-2.7,6-6h0c0-3.3-2.7-6-6-6h0c-3.3,0-6,2.7-6,6ZM244,178c0,3.3,2.7,6,6,6h0c-3.3,0-6,2.7-6,6h0c0,3.3,2.7,6,6,6h0c-3.3,0-6,2.7-6,6h0c0,3.3,2.7,6,6,6h0c-3.3,0-6,2.7-6,6h0c0,3.3,2.7,6,6,6h0c3.3,0,6-2.7,6-6h0c0-3.3-2.7-6-6-6h0c3.3,0,6-2.7,6-6h0c0-3.3-2.7-6-6-6h0c3.3,0,6-2.7,6-6h0c0-3.3-2.7-6-6-6h0c3.3,0,6-2.7,6-6h0c0-3.3-2.7-6-6-6h0c-3.3,0-6,2.7-6,6ZM220,178c0,3.3,2.7,6,6,6h0c-3.3,0-6,2.7-6,6h0c0,3.3,2.7,6,6,6h0c3.3,0,6-2.7,6-6h0c0-3.3-2.7-6-6-6h0c3.3,0,6-2.7,6-6h0c0-3.3-2.7-6-6-6h0c-3.3,0-6,2.7-6,6ZM208,178c0,3.3,2.7,6,6,6h0c-3.3,0-6,2.7-6,6h0c0,3.3,2.7,6,6,6h0c-3.3,0-6,2.7-6,6h0c0,3.3,2.7,6,6,6h0c-3.3,0-6,2.7-6,6h0c0,3.3,2.7,6,6,6h0c-3.3,0-6,2.7-6,6h0c0,3.3,2.7,6,6,6h0c3.3,0,6-2.7,6-6h0c0-3.3-2.7-6-6-6h0c3.3,0,6-2.7,6-6h0c0-3.3-2.7-6-6-6h0c3.3,0,6-2.7,6-6h0c0-3.3-2.7-6-6-6h0c3.3,0,6-2.7,6-6h0c0-3.3-2.7-6-6-6h0c3.3,0,6-2.7,6-6h0c0-3.3-2.7-6-6-6h0c-3.3,0-6,2.7-6,6ZM196,178c0,3.3,2.7,6,6,6h0c3.3,0,6-2.7,6-6h0c0-3.3-2.7-6-6-6h0c-3.3,0-6,2.7-6,6ZM100,178c0,3.3,2.7,6,6,6h0c3.3,0,6-2.7,6-6h0c0-3.3-2.7-6-6-6h0c-3.3,0-6,2.7-6,6ZM88,178c0,3.3,2.7,6,6,6h0c-3.3,0-6,2.7-6,6h0c0,3.3,2.7,6,6,6h0c-3.3,0-6,2.7-6,6h0c0,3.3,2.7,6,6,6h0c3.3,0,6-2.7,6-6h0c0-3.3-2.7-6-6-6h0c3.3,0,6-2.7,6-6h0c0-3.3-2.7-6-6-6h0c3.3,0,6-2.7,6-6h0c0-3.3-2.7-6-6-6h0c-3.3,0-6,2.7-6,6ZM76,178c0,3.3,2.7,6,6,6h0c3.3,0,6-2.7,6-6h0c0-3.3-2.7-6-6-6h0c-3.3,0-6,2.7-6,6ZM460,190c0,3.3,2.7,6,6,6h0c-3.3,0-6,2.7-6,6h0c0,3.3,2.7,6,6,6h0c3.3,0,6-2.7,6-6h0c0-3.3-2.7-6-6-6h0c3.3,0,6-2.7,6-6h0c0-3.3-2.7-6-6-6h0c-3.3,0-6,2.7-6,6ZM424,190c0,3.3,2.7,6,6,6h0c-3.3,0-6,2.7-6,6h0c0,3.3,2.7,6,6,6h0c-3.3,0-6,2.7-6,6h0c0,3.3,2.7,6,6,6h0c-3.3,0-6,2.7-6,6h0c0,3.3,2.7,6,6,6h0c-3.3,0-6,2.7-6,6h0c0,3.3,2.7,6,6,6h0c3.3,0,6-2.7,6-6h0c0-3.3-2.7-6-6-6h0c3.3,0,6-2.7,6-6h0c0-3.3-2.7-6-6-6h0c3.3,0,6-2.7,6-6h0c0-3.3-2.7-6-6-6h0c3.3,0,6-2.7,6-6h0c0-3.3-2.7-6-6-6h0c3.3,0,6-2.7,6-6h0c0-3.3-2.7-6-6-6h0c-3.3,0-6,2.7-6,6ZM412,190c0,3.3,2.7,6,6,6h0c3.3,0,6-2.7,6-6h0c0-3.3-2.7-6-6-6h0c-3.3,0-6,2.7-6,6ZM364,190c0,3.3,2.7,6,6,6h0c-3.3,0-6,2.7-6,6h0c0,3.3,2.7,6,6,6h0c-3.3,0-6,2.7-6,6h0c0,3.3,2.7,6,6,6h0c3.3,0,6-2.7,6-6h0c0-3.3-2.7-6-6-6h0c3.3,0,6-2.7,6-6h0c0-3.3-2.7-6-6-6h0c3.3,0,6-2.7,6-6h0c0-3.3-2.7-6-6-6h0c-3.3,0-6,2.7-6,6ZM316,190c0,3.3,2.7,6,6,6h0c3.3,0,6-2.7,6-6h0c0-3.3-2.7-6-6-6h0c-3.3,0-6,2.7-6,6ZM292,190c0,3.3,2.7,6,6,6h0c-3.3,0-6,2.7-6,6h0c0,3.3,2.7,6,6,6h0c3.3,0,6-2.7,6-6h0c0-3.3-2.7-6-6-6h0c3.3,0,6-2.7,6-6h0c0-3.3-2.7-6-6-6h0c-3.3,0-6,2.7-6,6ZM256,190c0,3.3,2.7,6,6,6h0c-3.3,0-6,2.7-6,6h0c0,3.3,2.7,6,6,6h0c3.3,0,6-2.7,6-6h0c0-3.3-2.7-6-6-6h0c3.3,0,6-2.7,6-6h0c0-3.3-2.7-6-6-6h0c-3.3,0-6,2.7-6,6ZM172,190c0,3.3,2.7,6,6,6h0c3.3,0,6-2.7,6-6h0c0-3.3-2.7-6-6-6h0c-3.3,0-6,2.7-6,6ZM136,190c0,3.3,2.7,6,6,6h0c-3.3,0-6,2.7-6,6h0c0,3.3,2.7,6,6,6h0c3.3,0,6-2.7,6-6h0c0-3.3-2.7-6-6-6h0c3.3,0,6-2.7,6-6h0c0-3.3-2.7-6-6-6h0c-3.3,0-6,2.7-6,6ZM124,190c0,3.3,2.7,6,6,6h0c3.3,0,6-2.7,6-6h0c0-3.3-2.7-6-6-6h0c-3.3,0-6,2.7-6,6ZM112,190c0,3.3,2.7,6,6,6h0c-3.3,0-6,2.7-6,6h0c0,3.3,2.7,6,6,6h0c-3.3,0-6,2.7-6,6h0c0,3.3,2.7,6,6,6h0c3.3,0,6-2.7,6-6h0c0-3.3-2.7-6-6-6h0c3.3,0,6-2.7,6-6h0c0-3.3-2.7-6-6-6h0c3.3,0,6-2.7,6-6h0c0-3.3-2.7-6-6-6h0c-3.3,0-6,2.7-6,6ZM64,190c0,3.3,2.7,6,6,6h0c3.3,0,6-2.7,6-6h0c0-3.3-2.7-6-6-6h0c-3.3,0-6,2.7-6,6ZM52,190c0,3.3,2.7,6,6,6h0c-3.3,0-6,2.7-6,6h0c0,3.3,2.7,6,6,6h0c3.3,0,6-2.7,6-6h0c0-3.3-2.7-6-6-6h0c3.3,0,6-2.7,6-6h0c0-3.3-2.7-6-6-6h0c-3.3,0-6,2.7-6,6ZM40,190c0,3.3,2.7,6,6,6h0c-3.3,0-6,2.7-6,6h0c0,3.3,2.7,6,6,6h0c3.3,0,6-2.7,6-6h0c0-3.3-2.7-6-6-6h0c3.3,0,6-2.7,6-6h0c0-3.3-2.7-6-6-6h0c-3.3,0-6,2.7-6,6ZM400,202c0,3.3,2.7,6,6,6h0c-3.3,0-6,2.7-6,6h0c0,3.3,2.7,6,6,6h0c3.3,0,6-2.7,6-6h0c0-3.3-2.7-6-6-6h0c3.3,0,6-2.7,6-6h0c0-3.3-2.7-6-6-6h0c-3.3,0-6,2.7-6,6ZM388,202c0,3.3,2.7,6,6,6h0c-3.3,0-6,2.7-6,6h0c0,3.3,2.7,6,6,6h0c3.3,0,6-2.7,6-6h0c0-3.3-2.7-6-6-6h0c3.3,0,6-2.7,6-6h0c0-3.3-2.7-6-6-6h0c-3.3,0-6,2.7-6,6ZM232,202c0,3.3,2.7,6,6,6h0c3.3,0,6-2.7,6-6h0c0-3.3-2.7-6-6-6h0c-3.3,0-6,2.7-6,6ZM196,202c0,3.3,2.7,6,6,6h0c-3.3,0-6,2.7-6,6h0c0,3.3,2.7,6,6,6h0c3.3,0,6-2.7,6-6h0c0-3.3-2.7-6-6-6h0c3.3,0,6-2.7,6-6h0c0-3.3-2.7-6-6-6h0c-3.3,0-6,2.7-6,6ZM184,202c0,3.3,2.7,6,6,6h0c3.3,0,6-2.7,6-6h0c0-3.3-2.7-6-6-6h0c-3.3,0-6,2.7-6,6ZM160,202c0,3.3,2.7,6,6,6h0c-3.3,0-6,2.7-6,6h0c0,3.3,2.7,6,6,6h0c-3.3,0-6,2.7-6,6h0c0,3.3,2.7,6,6,6h0c-3.3,0-6,2.7-6,6h0c0,3.3,2.7,6,6,6h0c3.3,0,6-2.7,6-6h0c0-3.3-2.7-6-6-6h0c3.3,0,6-2.7,6-6h0c0-3.3-2.7-6-6-6h0c3.3,0,6-2.7,6-6h0c0-3.3-2.7-6-6-6h0c3.3,0,6-2.7,6-6h0c0-3.3-2.7-6-6-6h0c-3.3,0-6,2.7-6,6ZM100,202c0,3.3,2.7,6,6,6h0c3.3,0,6-2.7,6-6h0c0-3.3-2.7-6-6-6h0c-3.3,0-6,2.7-6,6ZM76,202c0,3.3,2.7,6,6,6h0c3.3,0,6-2.7,6-6h0c0-3.3-2.7-6-6-6h0c-3.3,0-6,2.7-6,6ZM448,214c0,3.3,2.7,6,6,6h0c-3.3,0-6,2.7-6,6h0c0,3.3,2.7,6,6,6h0c-3.3,0-6,2.7-6,6h0c0,3.3,2.7,6,6,6h0c3.3,0,6-2.7,6-6h0c0-3.3-2.7-6-6-6h0c3.3,0,6-2.7,6-6h0c0-3.3-2.7-6-6-6h0c3.3,0,6-2.7,6-6h0c0-3.3-2.7-6-6-6h0c-3.3,0-6,2.7-6,6ZM436,214c0,3.3,2.7,6,6,6h0c3.3,0,6-2.7,6-6h0c0-3.3-2.7-6-6-6h0c-3.3,0-6,2.7-6,6ZM412,214c0,3.3,2.7,6,6,6h0c-3.3,0-6,2.7-6,6h0c0,3.3,2.7,6,6,6h0c-3.3,0-6,2.7-6,6h0c0,3.3,2.7,6,6,6h0c-3.3,0-6,2.7-6,6h0c0,3.3,2.7,6,6,6h0c-3.3,0-6,2.7-6,6h0c0,3.3,2.7,6,6,6h0c3.3,0,6-2.7,6-6h0c0-3.3-2.7-6-6-6h0c3.3,0,6-2.7,6-6h0c0-3.3-2.7-6-6-6h0c3.3,0,6-2.7,6-6h0c0-3.3-2.7-6-6-6h0c3.3,0,6-2.7,6-6h0c0-3.3-2.7-6-6-6h0c3.3,0,6-2.7,6-6h0c0-3.3-2.7-6-6-6h0c-3.3,0-6,2.7-6,6ZM352,214c0,3.3,2.7,6,6,6h0c3.3,0,6-2.7,6-6h0c0-3.3-2.7-6-6-6h0c-3.3,0-6,2.7-6,6ZM340,214c0,3.3,2.7,6,6,6h0c3.3,0,6-2.7,6-6h0c0-3.3-2.7-6-6-6h0c-3.3,0-6,2.7-6,6ZM328,214c0,3.3,2.7,6,6,6h0c3.3,0,6-2.7,6-6h0c0-3.3-2.7-6-6-6h0c-3.3,0-6,2.7-6,6ZM304,214c0,3.3,2.7,6,6,6h0c3.3,0,6-2.7,6-6h0c0-3.3-2.7-6-6-6h0c-3.3,0-6,2.7-6,6ZM124,214c0,3.3,2.7,6,6,6h0c3.3,0,6-2.7,6-6h0c0-3.3-2.7-6-6-6h0c-3.3,0-6,2.7-6,6ZM460,226c0,3.3,2.7,6,6,6h0c-3.3,0-6,2.7-6,6h0c0,3.3,2.7,6,6,6h0c-3.3,0-6,2.7-6,6h0c0,3.3,2.7,6,6,6h0c-3.3,0-6,2.7-6,6h0c0,3.3,2.7,6,6,6h0c3.3,0,6-2.7,6-6h0c0-3.3-2.7-6-6-6h0c3.3,0,6-2.7,6-6h0c0-3.3-2.7-6-6-6h0c3.3,0,6-2.7,6-6h0c0-3.3-2.7-6-6-6h0c3.3,0,6-2.7,6-6h0c0-3.3-2.7-6-6-6h0c-3.3,0-6,2.7-6,6ZM316,226c0,3.3,2.7,6,6,6h0c-3.3,0-6,2.7-6,6h0c0,3.3,2.7,6,6,6h0c3.3,0,6-2.7,6-6h0c0-3.3-2.7-6-6-6h0c3.3,0,6-2.7,6-6h0c0-3.3-2.7-6-6-6h0c-3.3,0-6,2.7-6,6ZM268,226c0,3.3,2.7,6,6,6h0c-3.3,0-6,2.7-6,6h0c0,3.3,2.7,6,6,6h0c3.3,0,6-2.7,6-6h0c0-3.3-2.7-6-6-6h0c3.3,0,6-2.7,6-6h0c0-3.3-2.7-6-6-6h0c-3.3,0-6,2.7-6,6ZM256,226c0,3.3,2.7,6,6,6h0c-3.3,0-6,2.7-6,6h0c0,3.3,2.7,6,6,6h0c-3.3,0-6,2.7-6,6h0c0,3.3,2.7,6,6,6h0c-3.3,0-6,2.7-6,6h0c0,3.3,2.7,6,6,6h0c3.3,0,6-2.7,6-6h0c0-3.3-2.7-6-6-6h0c3.3,0,6-2.7,6-6h0c0-3.3-2.7-6-6-6h0c3.3,0,6-2.7,6-6h0c0-3.3-2.7-6-6-6h0c3.3,0,6-2.7,6-6h0c0-3.3-2.7-6-6-6h0c-3.3,0-6,2.7-6,6ZM232,226c0,3.3,2.7,6,6,6h0c-3.3,0-6,2.7-6,6h0c0,3.3,2.7,6,6,6h0c3.3,0,6-2.7,6-6h0c0-3.3-2.7-6-6-6h0c3.3,0,6-2.7,6-6h0c0-3.3-2.7-6-6-6h0c-3.3,0-6,2.7-6,6ZM184,226c0,3.3,2.7,6,6,6h0c-3.3,0-6,2.7-6,6h0c0,3.3,2.7,6,6,6h0c3.3,0,6-2.7,6-6h0c0-3.3-2.7-6-6-6h0c3.3,0,6-2.7,6-6h0c0-3.3-2.7-6-6-6h0c-3.3,0-6,2.7-6,6ZM172,226c0,3.3,2.7,6,6,6h0c3.3,0,6-2.7,6-6h0c0-3.3-2.7-6-6-6h0c-3.3,0-6,2.7-6,6ZM148,226c0,3.3,2.7,6,6,6h0c3.3,0,6-2.7,6-6h0c0-3.3-2.7-6-6-6h0c-3.3,0-6,2.7-6,6ZM136,226c0,3.3,2.7,6,6,6h0c3.3,0,6-2.7,6-6h0c0-3.3-2.7-6-6-6h0c-3.3,0-6,2.7-6,6ZM100,226c0,3.3,2.7,6,6,6h0c3.3,0,6-2.7,6-6h0c0-3.3-2.7-6-6-6h0c-3.3,0-6,2.7-6,6ZM64,226c0,3.3,2.7,6,6,6h0c-3.3,0-6,2.7-6,6h0c0,3.3,2.7,6,6,6h0c-3.3,0-6,2.7-6,6h0c0,3.3,2.7,6,6,6h0c-3.3,0-6,2.7-6,6h0c0,3.3,2.7,6,6,6h0c3.3,0,6-2.7,6-6h0c0-3.3-2.7-6-6-6h0c3.3,0,6-2.7,6-6h0c0-3.3-2.7-6-6-6h0c3.3,0,6-2.7,6-6h0c0-3.3-2.7-6-6-6h0c3.3,0,6-2.7,6-6h0c0-3.3-2.7-6-6-6h0c-3.3,0-6,2.7-6,6ZM436,238c0,3.3,2.7,6,6,6h0c-3.3,0-6,2.7-6,6h0c0,3.3,2.7,6,6,6h0c-3.3,0-6,2.7-6,6h0c0,3.3,2.7,6,6,6h0c-3.3,0-6,2.7-6,6h0c0,3.3,2.7,6,6,6h0c3.3,0,6-2.7,6-6h0c0-3.3-2.7-6-6-6h0c3.3,0,6-2.7,6-6h0c0-3.3-2.7-6-6-6h0c3.3,0,6-2.7,6-6h0c0-3.3-2.7-6-6-6h0c3.3,0,6-2.7,6-6h0c0-3.3-2.7-6-6-6h0c-3.3,0-6,2.7-6,6ZM400,238c0,3.3,2.7,6,6,6h0c3.3,0,6-2.7,6-6h0c0-3.3-2.7-6-6-6h0c-3.3,0-6,2.7-6,6ZM352,238c0,3.3,2.7,6,6,6h0c3.3,0,6-2.7,6-6h0c0-3.3-2.7-6-6-6h0c-3.3,0-6,2.7-6,6ZM340,238c0,3.3,2.7,6,6,6h0c3.3,0,6-2.7,6-6h0c0-3.3-2.7-6-6-6h0c-3.3,0-6,2.7-6,6ZM244,238c0,3.3,2.7,6,6,6h0c3.3,0,6-2.7,6-6h0c0-3.3-2.7-6-6-6h0c-3.3,0-6,2.7-6,6ZM124,238c0,3.3,2.7,6,6,6h0c3.3,0,6-2.7,6-6h0c0-3.3-2.7-6-6-6h0c-3.3,0-6,2.7-6,6ZM112,238c0,3.3,2.7,6,6,6h0c-3.3,0-6,2.7-6,6h0c0,3.3,2.7,6,6,6h0c3.3,0,6-2.7,6-6h0c0-3.3-2.7-6-6-6h0c3.3,0,6-2.7,6-6h0c0-3.3-2.7-6-6-6h0c-3.3,0-6,2.7-6,6ZM52,238c0,3.3,2.7,6,6,6h0c-3.3,0-6,2.7-6,6h0c0,3.3,2.7,6,6,6h0c-3.3,0-6,2.7-6,6h0c0,3.3,2.7,6,6,6h0c3.3,0,6-2.7,6-6h0c0-3.3-2.7-6-6-6h0c3.3,0,6-2.7,6-6h0c0-3.3-2.7-6-6-6h0c3.3,0,6-2.7,6-6h0c0-3.3-2.7-6-6-6h0c-3.3,0-6,2.7-6,6ZM40,238c0,3.3,2.7,6,6,6h0c-3.3,0-6,2.7-6,6h0c0,3.3,2.7,6,6,6h0c3.3,0,6-2.7,6-6h0c0-3.3-2.7-6-6-6h0c3.3,0,6-2.7,6-6h0c0-3.3-2.7-6-6-6h0c-3.3,0-6,2.7-6,6ZM280,250c0,3.3,2.7,6,6,6h0c3.3,0,6-2.7,6-6h0c0-3.3-2.7-6-6-6h0c-3.3,0-6,2.7-6,6ZM220,250c0,3.3,2.7,6,6,6h0c3.3,0,6-2.7,6-6h0c0-3.3-2.7-6-6-6h0c-3.3,0-6,2.7-6,6ZM208,250c0,3.3,2.7,6,6,6h0c3.3,0,6-2.7,6-6h0c0-3.3-2.7-6-6-6h0c-3.3,0-6,2.7-6,6ZM196,250c0,3.3,2.7,6,6,6h0c3.3,0,6-2.7,6-6h0c0-3.3-2.7-6-6-6h0c-3.3,0-6,2.7-6,6ZM100,250c0,3.3,2.7,6,6,6h0c3.3,0,6-2.7,6-6h0c0-3.3-2.7-6-6-6h0c-3.3,0-6,2.7-6,6ZM88,250c0,3.3,2.7,6,6,6h0c3.3,0,6-2.7,6-6h0c0-3.3-2.7-6-6-6h0c-3.3,0-6,2.7-6,6ZM28,250c0,3.3,2.7,6,6,6h0c3.3,0,6-2.7,6-6h0c0-3.3-2.7-6-6-6h0c-3.3,0-6,2.7-6,6ZM388,262c0,3.3,2.7,6,6,6h0c-3.3,0-6,2.7-6,6h0c0,3.3,2.7,6,6,6h0c-3.3,0-6,2.7-6,6h0c0,3.3,2.7,6,6,6h0c3.3,0,6-2.7,6-6h0c0-3.3-2.7-6-6-6h0c3.3,0,6-2.7,6-6h0c0-3.3-2.7-6-6-6h0c3.3,0,6-2.7,6-6h0c0-3.3-2.7-6-6-6h0c-3.3,0-6,2.7-6,6ZM352,262c0,3.3,2.7,6,6,6h0c-3.3,0-6,2.7-6,6h0c0,3.3,2.7,6,6,6h0c-3.3,0-6,2.7-6,6h0c0,3.3,2.7,6,6,6h0c-3.3,0-6,2.7-6,6h0c0,3.3,2.7,6,6,6h0c3.3,0,6-2.7,6-6h0c0-3.3-2.7-6-6-6h0c3.3,0,6-2.7,6-6h0c0-3.3-2.7-6-6-6h0c3.3,0,6-2.7,6-6h0c0-3.3-2.7-6-6-6h0c3.3,0,6-2.7,6-6h0c0-3.3-2.7-6-6-6h0c-3.3,0-6,2.7-6,6ZM340,262c0,3.3,2.7,6,6,6h0c-3.3,0-6,2.7-6,6h0c0,3.3,2.7,6,6,6h0c-3.3,0-6,2.7-6,6h0c0,3.3,2.7,6,6,6h0c-3.3,0-6,2.7-6,6h0c0,3.3,2.7,6,6,6h0c3.3,0,6-2.7,6-6h0c0-3.3-2.7-6-6-6h0c3.3,0,6-2.7,6-6h0c0-3.3-2.7-6-6-6h0c3.3,0,6-2.7,6-6h0c0-3.3-2.7-6-6-6h0c3.3,0,6-2.7,6-6h0c0-3.3-2.7-6-6-6h0c-3.3,0-6,2.7-6,6ZM328,262c0,3.3,2.7,6,6,6h0c-3.3,0-6,2.7-6,6h0c0,3.3,2.7,6,6,6h0c3.3,0,6-2.7,6-6h0c0-3.3-2.7-6-6-6h0c3.3,0,6-2.7,6-6h0c0-3.3-2.7-6-6-6h0c-3.3,0-6,2.7-6,6ZM268,262c0,3.3,2.7,6,6,6h0c3.3,0,6-2.7,6-6h0c0-3.3-2.7-6-6-6h0c-3.3,0-6,2.7-6,6ZM124,262c0,3.3,2.7,6,6,6h0c3.3,0,6-2.7,6-6h0c0-3.3-2.7-6-6-6h0c-3.3,0-6,2.7-6,6ZM448,274c0,3.3,2.7,6,6,6h0c3.3,0,6-2.7,6-6h0c0-3.3-2.7-6-6-6h0c-3.3,0-6,2.7-6,6ZM424,274c0,3.3,2.7,6,6,6h0c3.3,0,6-2.7,6-6h0c0-3.3-2.7-6-6-6h0c-3.3,0-6,2.7-6,6ZM364,274c0,3.3,2.7,6,6,6h0c-3.3,0-6,2.7-6,6h0c0,3.3,2.7,6,6,6h0c3.3,0,6-2.7,6-6h0c0-3.3-2.7-6-6-6h0c3.3,0,6-2.7,6-6h0c0-3.3-2.7-6-6-6h0c-3.3,0-6,2.7-6,6ZM316,274c0,3.3,2.7,6,6,6h0c3.3,0,6-2.7,6-6h0c0-3.3-2.7-6-6-6h0c-3.3,0-6,2.7-6,6ZM304,274c0,3.3,2.7,6,6,6h0c3.3,0,6-2.7,6-6h0c0-3.3-2.7-6-6-6h0c-3.3,0-6,2.7-6,6ZM244,274c0,3.3,2.7,6,6,6h0c-3.3,0-6,2.7-6,6h0c0,3.3,2.7,6,6,6h0c3.3,0,6-2.7,6-6h0c0-3.3-2.7-6-6-6h0c3.3,0,6-2.7,6-6h0c0-3.3-2.7-6-6-6h0c-3.3,0-6,2.7-6,6ZM160,274c0,3.3,2.7,6,6,6h0c3.3,0,6-2.7,6-6h0c0-3.3-2.7-6-6-6h0c-3.3,0-6,2.7-6,6ZM148,274c0,3.3,2.7,6,6,6h0c3.3,0,6-2.7,6-6h0c0-3.3-2.7-6-6-6h0c-3.3,0-6,2.7-6,6ZM112,274c0,3.3,2.7,6,6,6h0c3.3,0,6-2.7,6-6h0c0-3.3-2.7-6-6-6h0c-3.3,0-6,2.7-6,6ZM100,274c0,3.3,2.7,6,6,6h0c3.3,0,6-2.7,6-6h0c0-3.3-2.7-6-6-6h0c-3.3,0-6,2.7-6,6ZM88,274c0,3.3,2.7,6,6,6h0c3.3,0,6-2.7,6-6h0c0-3.3-2.7-6-6-6h0c-3.3,0-6,2.7-6,6ZM76,274c0,3.3,2.7,6,6,6h0c3.3,0,6-2.7,6-6h0c0-3.3-2.7-6-6-6h0c-3.3,0-6,2.7-6,6ZM28,274c0,3.3,2.7,6,6,6h0c-3.3,0-6,2.7-6,6h0c0,3.3,2.7,6,6,6h0c3.3,0,6-2.7,6-6h0c0-3.3-2.7-6-6-6h0c3.3,0,6-2.7,6-6h0c0-3.3-2.7-6-6-6h0c-3.3,0-6,2.7-6,6ZM268,286c0,3.3,2.7,6,6,6h0c3.3,0,6-2.7,6-6h0c0-3.3-2.7-6-6-6h0c-3.3,0-6,2.7-6,6ZM196,286c0,3.3,2.7,6,6,6h0c3.3,0,6-2.7,6-6h0c0-3.3-2.7-6-6-6h0c-3.3,0-6,2.7-6,6ZM184,286c0,3.3,2.7,6,6,6h0c-3.3,0-6,2.7-6,6h0c0,3.3,2.7,6,6,6h0c3.3,0,6-2.7,6-6h0c0-3.3-2.7-6-6-6h0c3.3,0,6-2.7,6-6h0c0-3.3-2.7-6-6-6h0c-3.3,0-6,2.7-6,6ZM136,286c0,3.3,2.7,6,6,6h0c3.3,0,6-2.7,6-6h0c0-3.3-2.7-6-6-6h0c-3.3,0-6,2.7-6,6ZM124,286c0,3.3,2.7,6,6,6h0c3.3,0,6-2.7,6-6h0c0-3.3-2.7-6-6-6h0c-3.3,0-6,2.7-6,6ZM460,298c0,3.3,2.7,6,6,6h0c3.3,0,6-2.7,6-6h0c0-3.3-2.7-6-6-6h0c-3.3,0-6,2.7-6,6ZM436,298c0,3.3,2.7,6,6,6h0c-3.3,0-6,2.7-6,6h0c0,3.3,2.7,6,6,6h0c-3.3,0-6,2.7-6,6h0c0,3.3,2.7,6,6,6h0c3.3,0,6-2.7,6-6h0c0-3.3-2.7-6-6-6h0c3.3,0,6-2.7,6-6h0c0-3.3-2.7-6-6-6h0c3.3,0,6-2.7,6-6h0c0-3.3-2.7-6-6-6h0c-3.3,0-6,2.7-6,6ZM424,298c0,3.3,2.7,6,6,6h0c-3.3,0-6,2.7-6,6h0c0,3.3,2.7,6,6,6h0c3.3,0,6-2.7,6-6h0c0-3.3-2.7-6-6-6h0c3.3,0,6-2.7,6-6h0c0-3.3-2.7-6-6-6h0c-3.3,0-6,2.7-6,6ZM412,298c0,3.3,2.7,6,6,6h0c-3.3,0-6,2.7-6,6h0c0,3.3,2.7,6,6,6h0c3.3,0,6-2.7,6-6h0c0-3.3-2.7-6-6-6h0c3.3,0,6-2.7,6-6h0c0-3.3-2.7-6-6-6h0c-3.3,0-6,2.7-6,6ZM400,298c0,3.3,2.7,6,6,6h0c-3.3,0-6,2.7-6,6h0c0,3.3,2.7,6,6,6h0c3.3,0,6-2.7,6-6h0c0-3.3-2.7-6-6-6h0c3.3,0,6-2.7,6-6h0c0-3.3-2.7-6-6-6h0c-3.3,0-6,2.7-6,6ZM376,298c0,3.3,2.7,6,6,6h0c-3.3,0-6,2.7-6,6h0c0,3.3,2.7,6,6,6h0c-3.3,0-6,2.7-6,6h0c0,3.3,2.7,6,6,6h0c-3.3,0-6,2.7-6,6h0c0,3.3,2.7,6,6,6h0c3.3,0,6-2.7,6-6h0c0-3.3-2.7-6-6-6h0c3.3,0,6-2.7,6-6h0c0-3.3-2.7-6-6-6h0c3.3,0,6-2.7,6-6h0c0-3.3-2.7-6-6-6h0c3.3,0,6-2.7,6-6h0c0-3.3-2.7-6-6-6h0c-3.3,0-6,2.7-6,6ZM316,298c0,3.3,2.7,6,6,6h0c3.3,0,6-2.7,6-6h0c0-3.3-2.7-6-6-6h0c-3.3,0-6,2.7-6,6ZM280,298c0,3.3,2.7,6,6,6h0c-3.3,0-6,2.7-6,6h0c0,3.3,2.7,6,6,6h0c3.3,0,6-2.7,6-6h0c0-3.3-2.7-6-6-6h0c3.3,0,6-2.7,6-6h0c0-3.3-2.7-6-6-6h0c-3.3,0-6,2.7-6,6ZM256,298c0,3.3,2.7,6,6,6h0c-3.3,0-6,2.7-6,6h0c0,3.3,2.7,6,6,6h0c-3.3,0-6,2.7-6,6h0c0,3.3,2.7,6,6,6h0c3.3,0,6-2.7,6-6h0c0-3.3-2.7-6-6-6h0c3.3,0,6-2.7,6-6h0c0-3.3-2.7-6-6-6h0c3.3,0,6-2.7,6-6h0c0-3.3-2.7-6-6-6h0c-3.3,0-6,2.7-6,6ZM232,298c0,3.3,2.7,6,6,6h0c-3.3,0-6,2.7-6,6h0c0,3.3,2.7,6,6,6h0c3.3,0,6-2.7,6-6h0c0-3.3-2.7-6-6-6h0c3.3,0,6-2.7,6-6h0c0-3.3-2.7-6-6-6h0c-3.3,0-6,2.7-6,6ZM220,298c0,3.3,2.7,6,6,6h0c-3.3,0-6,2.7-6,6h0c0,3.3,2.7,6,6,6h0c3.3,0,6-2.7,6-6h0c0-3.3-2.7-6-6-6h0c3.3,0,6-2.7,6-6h0c0-3.3-2.7-6-6-6h0c-3.3,0-6,2.7-6,6ZM172,298c0,3.3,2.7,6,6,6h0c3.3,0,6-2.7,6-6h0c0-3.3-2.7-6-6-6h0c-3.3,0-6,2.7-6,6ZM160,298c0,3.3,2.7,6,6,6h0c3.3,0,6-2.7,6-6h0c0-3.3-2.7-6-6-6h0c-3.3,0-6,2.7-6,6ZM148,298c0,3.3,2.7,6,6,6h0c-3.3,0-6,2.7-6,6h0c0,3.3,2.7,6,6,6h0c-3.3,0-6,2.7-6,6h0c0,3.3,2.7,6,6,6h0c-3.3,0-6,2.7-6,6h0c0,3.3,2.7,6,6,6h0c3.3,0,6-2.7,6-6h0c0-3.3-2.7-6-6-6h0c3.3,0,6-2.7,6-6h0c0-3.3-2.7-6-6-6h0c3.3,0,6-2.7,6-6h0c0-3.3-2.7-6-6-6h0c3.3,0,6-2.7,6-6h0c0-3.3-2.7-6-6-6h0c-3.3,0-6,2.7-6,6ZM100,298c0,3.3,2.7,6,6,6h0c3.3,0,6-2.7,6-6h0c0-3.3-2.7-6-6-6h0c-3.3,0-6,2.7-6,6ZM64,298c0,3.3,2.7,6,6,6h0c-3.3,0-6,2.7-6,6h0c0,3.3,2.7,6,6,6h0c3.3,0,6-2.7,6-6h0c0-3.3-2.7-6-6-6h0c3.3,0,6-2.7,6-6h0c0-3.3-2.7-6-6-6h0c-3.3,0-6,2.7-6,6ZM52,298c0,3.3,2.7,6,6,6h0c-3.3,0-6,2.7-6,6h0c0,3.3,2.7,6,6,6h0c-3.3,0-6,2.7-6,6h0c0,3.3,2.7,6,6,6h0c-3.3,0-6,2.7-6,6h0c0,3.3,2.7,6,6,6h0c-3.3,0-6,2.7-6,6h0c0,3.3,2.7,6,6,6h0c-3.3,0-6,2.7-6,6h0c0,3.3,2.7,6,6,6h0c-3.3,0-6,2.7-6,6h0c0,3.3,2.7,6,6,6h0c3.3,0,6-2.7,6-6h0c0-3.3-2.7-6-6-6h0c3.3,0,6-2.7,6-6h0c0-3.3-2.7-6-6-6h0c3.3,0,6-2.7,6-6h0c0-3.3-2.7-6-6-6h0c3.3,0,6-2.7,6-6h0c0-3.3-2.7-6-6-6h0c3.3,0,6-2.7,6-6h0c0-3.3-2.7-6-6-6h0c3.3,0,6-2.7,6-6h0c0-3.3-2.7-6-6-6h0c3.3,0,6-2.7,6-6h0c0-3.3-2.7-6-6-6h0c-3.3,0-6,2.7-6,6ZM448,310c0,3.3,2.7,6,6,6h0c3.3,0,6-2.7,6-6h0c0-3.3-2.7-6-6-6h0c-3.3,0-6,2.7-6,6ZM292,310c0,3.3,2.7,6,6,6h0c-3.3,0-6,2.7-6,6h0c0,3.3,2.7,6,6,6h0c-3.3,0-6,2.7-6,6h0c0,3.3,2.7,6,6,6h0c3.3,0,6-2.7,6-6h0c0-3.3-2.7-6-6-6h0c3.3,0,6-2.7,6-6h0c0-3.3-2.7-6-6-6h0c3.3,0,6-2.7,6-6h0c0-3.3-2.7-6-6-6h0c-3.3,0-6,2.7-6,6ZM136,310c0,3.3,2.7,6,6,6h0c3.3,0,6-2.7,6-6h0c0-3.3-2.7-6-6-6h0c-3.3,0-6,2.7-6,6ZM124,310c0,3.3,2.7,6,6,6h0c-3.3,0-6,2.7-6,6h0c0,3.3,2.7,6,6,6h0c3.3,0,6-2.7,6-6h0c0-3.3-2.7-6-6-6h0c3.3,0,6-2.7,6-6h0c0-3.3-2.7-6-6-6h0c-3.3,0-6,2.7-6,6ZM40,310c0,3.3,2.7,6,6,6h0c-3.3,0-6,2.7-6,6h0c0,3.3,2.7,6,6,6h0c3.3,0,6-2.7,6-6h0c0-3.3-2.7-6-6-6h0c3.3,0,6-2.7,6-6h0c0-3.3-2.7-6-6-6h0c-3.3,0-6,2.7-6,6ZM460,322c0,3.3,2.7,6,6,6h0c-3.3,0-6,2.7-6,6h0c0,3.3,2.7,6,6,6h0c-3.3,0-6,2.7-6,6h0c0,3.3,2.7,6,6,6h0c3.3,0,6-2.7,6-6h0c0-3.3-2.7-6-6-6h0c3.3,0,6-2.7,6-6h0c0-3.3-2.7-6-6-6h0c3.3,0,6-2.7,6-6h0c0-3.3-2.7-6-6-6h0c-3.3,0-6,2.7-6,6ZM388,322c0,3.3,2.7,6,6,6h0c-3.3,0-6,2.7-6,6h0c0,3.3,2.7,6,6,6h0c3.3,0,6-2.7,6-6h0c0-3.3-2.7-6-6-6h0c3.3,0,6-2.7,6-6h0c0-3.3-2.7-6-6-6h0c-3.3,0-6,2.7-6,6ZM352,322c0,3.3,2.7,6,6,6h0c3.3,0,6-2.7,6-6h0c0-3.3-2.7-6-6-6h0c-3.3,0-6,2.7-6,6ZM340,322c0,3.3,2.7,6,6,6h0c-3.3,0-6,2.7-6,6h0c0,3.3,2.7,6,6,6h0c-3.3,0-6,2.7-6,6h0c0,3.3,2.7,6,6,6h0c3.3,0,6-2.7,6-6h0c0-3.3-2.7-6-6-6h0c3.3,0,6-2.7,6-6h0c0-3.3-2.7-6-6-6h0c3.3,0,6-2.7,6-6h0c0-3.3-2.7-6-6-6h0c-3.3,0-6,2.7-6,6ZM328,322c0,3.3,2.7,6,6,6h0c3.3,0,6-2.7,6-6h0c0-3.3-2.7-6-6-6h0c-3.3,0-6,2.7-6,6ZM316,322c0,3.3,2.7,6,6,6h0c-3.3,0-6,2.7-6,6h0c0,3.3,2.7,6,6,6h0c-3.3,0-6,2.7-6,6h0c0,3.3,2.7,6,6,6h0c3.3,0,6-2.7,6-6h0c0-3.3-2.7-6-6-6h0c3.3,0,6-2.7,6-6h0c0-3.3-2.7-6-6-6h0c3.3,0,6-2.7,6-6h0c0-3.3-2.7-6-6-6h0c-3.3,0-6,2.7-6,6ZM304,322c0,3.3,2.7,6,6,6h0c-3.3,0-6,2.7-6,6h0c0,3.3,2.7,6,6,6h0c3.3,0,6-2.7,6-6h0c0-3.3-2.7-6-6-6h0c3.3,0,6-2.7,6-6h0c0-3.3-2.7-6-6-6h0c-3.3,0-6,2.7-6,6ZM196,322c0,3.3,2.7,6,6,6h0c3.3,0,6-2.7,6-6h0c0-3.3-2.7-6-6-6h0c-3.3,0-6,2.7-6,6ZM184,322c0,3.3,2.7,6,6,6h0c-3.3,0-6,2.7-6,6h0c0,3.3,2.7,6,6,6h0c3.3,0,6-2.7,6-6h0c0-3.3-2.7-6-6-6h0c3.3,0,6-2.7,6-6h0c0-3.3-2.7-6-6-6h0c-3.3,0-6,2.7-6,6ZM112,322c0,3.3,2.7,6,6,6h0c3.3,0,6-2.7,6-6h0c0-3.3-2.7-6-6-6h0c-3.3,0-6,2.7-6,6ZM100,322c0,3.3,2.7,6,6,6h0c3.3,0,6-2.7,6-6h0c0-3.3-2.7-6-6-6h0c-3.3,0-6,2.7-6,6ZM76,322c0,3.3,2.7,6,6,6h0c3.3,0,6-2.7,6-6h0c0-3.3-2.7-6-6-6h0c-3.3,0-6,2.7-6,6ZM28,322c0,3.3,2.7,6,6,6h0c3.3,0,6-2.7,6-6h0c0-3.3-2.7-6-6-6h0c-3.3,0-6,2.7-6,6ZM448,334c0,3.3,2.7,6,6,6h0c-3.3,0-6,2.7-6,6h0c0,3.3,2.7,6,6,6h0c-3.3,0-6,2.7-6,6h0c0,3.3,2.7,6,6,6h0c3.3,0,6-2.7,6-6h0c0-3.3-2.7-6-6-6h0c3.3,0,6-2.7,6-6h0c0-3.3-2.7-6-6-6h0c3.3,0,6-2.7,6-6h0c0-3.3-2.7-6-6-6h0c-3.3,0-6,2.7-6,6ZM424,334c0,3.3,2.7,6,6,6h0c3.3,0,6-2.7,6-6h0c0-3.3-2.7-6-6-6h0c-3.3,0-6,2.7-6,6ZM364,334c0,3.3,2.7,6,6,6h0c3.3,0,6-2.7,6-6h0c0-3.3-2.7-6-6-6h0c-3.3,0-6,2.7-6,6ZM280,334c0,3.3,2.7,6,6,6h0c3.3,0,6-2.7,6-6h0c0-3.3-2.7-6-6-6h0c-3.3,0-6,2.7-6,6ZM220,334c0,3.3,2.7,6,6,6h0c3.3,0,6-2.7,6-6h0c0-3.3-2.7-6-6-6h0c-3.3,0-6,2.7-6,6ZM172,334c0,3.3,2.7,6,6,6h0c-3.3,0-6,2.7-6,6h0c0,3.3,2.7,6,6,6h0c-3.3,0-6,2.7-6,6h0c0,3.3,2.7,6,6,6h0c3.3,0,6-2.7,6-6h0c0-3.3-2.7-6-6-6h0c3.3,0,6-2.7,6-6h0c0-3.3-2.7-6-6-6h0c3.3,0,6-2.7,6-6h0c0-3.3-2.7-6-6-6h0c-3.3,0-6,2.7-6,6ZM160,334c0,3.3,2.7,6,6,6h0c-3.3,0-6,2.7-6,6h0c0,3.3,2.7,6,6,6h0c-3.3,0-6,2.7-6,6h0c0,3.3,2.7,6,6,6h0c3.3,0,6-2.7,6-6h0c0-3.3-2.7-6-6-6h0c3.3,0,6-2.7,6-6h0c0-3.3-2.7-6-6-6h0c3.3,0,6-2.7,6-6h0c0-3.3-2.7-6-6-6h0c-3.3,0-6,2.7-6,6ZM136,334c0,3.3,2.7,6,6,6h0c3.3,0,6-2.7,6-6h0c0-3.3-2.7-6-6-6h0c-3.3,0-6,2.7-6,6ZM88,334c0,3.3,2.7,6,6,6h0c-3.3,0-6,2.7-6,6h0c0,3.3,2.7,6,6,6h0c3.3,0,6-2.7,6-6h0c0-3.3-2.7-6-6-6h0c3.3,0,6-2.7,6-6h0c0-3.3-2.7-6-6-6h0c-3.3,0-6,2.7-6,6ZM64,334c0,3.3,2.7,6,6,6h0c-3.3,0-6,2.7-6,6h0c0,3.3,2.7,6,6,6h0c-3.3,0-6,2.7-6,6h0c0,3.3,2.7,6,6,6h0c3.3,0,6-2.7,6-6h0c0-3.3-2.7-6-6-6h0c3.3,0,6-2.7,6-6h0c0-3.3-2.7-6-6-6h0c3.3,0,6-2.7,6-6h0c0-3.3-2.7-6-6-6h0c-3.3,0-6,2.7-6,6ZM412,346c0,3.3,2.7,6,6,6h0c3.3,0,6-2.7,6-6h0c0-3.3-2.7-6-6-6h0c-3.3,0-6,2.7-6,6ZM328,346c0,3.3,2.7,6,6,6h0c-3.3,0-6,2.7-6,6h0c0,3.3,2.7,6,6,6h0c-3.3,0-6,2.7-6,6h0c0,3.3,2.7,6,6,6h0c-3.3,0-6,2.7-6,6h0c0,3.3,2.7,6,6,6h0c-3.3,0-6,2.7-6,6h0c0,3.3,2.7,6,6,6h0c-3.3,0-6,2.7-6,6h0c0,3.3,2.7,6,6,6h0c-3.3,0-6,2.7-6,6h0c0,3.3,2.7,6,6,6h0c-3.3,0-6,2.7-6,6h0c0,3.3,2.7,6,6,6h0c3.3,0,6-2.7,6-6h0c0-3.3-2.7-6-6-6h0c3.3,0,6-2.7,6-6h0c0-3.3-2.7-6-6-6h0c3.3,0,6-2.7,6-6h0c0-3.3-2.7-6-6-6h0c3.3,0,6-2.7,6-6h0c0-3.3-2.7-6-6-6h0c3.3,0,6-2.7,6-6h0c0-3.3-2.7-6-6-6h0c3.3,0,6-2.7,6-6h0c0-3.3-2.7-6-6-6h0c3.3,0,6-2.7,6-6h0c0-3.3-2.7-6-6-6h0c3.3,0,6-2.7,6-6h0c0-3.3-2.7-6-6-6h0c-3.3,0-6,2.7-6,6ZM268,346c0,3.3,2.7,6,6,6h0c3.3,0,6-2.7,6-6h0c0-3.3-2.7-6-6-6h0c-3.3,0-6,2.7-6,6ZM208,346c0,3.3,2.7,6,6,6h0c-3.3,0-6,2.7-6,6h0c0,3.3,2.7,6,6,6h0c3.3,0,6-2.7,6-6h0c0-3.3-2.7-6-6-6h0c3.3,0,6-2.7,6-6h0c0-3.3-2.7-6-6-6h0c-3.3,0-6,2.7-6,6ZM196,346c0,3.3,2.7,6,6,6h0c3.3,0,6-2.7,6-6h0c0-3.3-2.7-6-6-6h0c-3.3,0-6,2.7-6,6ZM124,346c0,3.3,2.7,6,6,6h0c-3.3,0-6,2.7-6,6h0c0,3.3,2.7,6,6,6h0c-3.3,0-6,2.7-6,6h0c0,3.3,2.7,6,6,6h0c3.3,0,6-2.7,6-6h0c0-3.3-2.7-6-6-6h0c3.3,0,6-2.7,6-6h0c0-3.3-2.7-6-6-6h0c3.3,0,6-2.7,6-6h0c0-3.3-2.7-6-6-6h0c-3.3,0-6,2.7-6,6ZM100,346c0,3.3,2.7,6,6,6h0c3.3,0,6-2.7,6-6h0c0-3.3-2.7-6-6-6h0c-3.3,0-6,2.7-6,6ZM40,346c0,3.3,2.7,6,6,6h0c3.3,0,6-2.7,6-6h0c0-3.3-2.7-6-6-6h0c-3.3,0-6,2.7-6,6ZM436,358c0,3.3,2.7,6,6,6h0c-3.3,0-6,2.7-6,6h0c0,3.3,2.7,6,6,6h0c3.3,0,6-2.7,6-6h0c0-3.3-2.7-6-6-6h0c3.3,0,6-2.7,6-6h0c0-3.3-2.7-6-6-6h0c-3.3,0-6,2.7-6,6ZM400,358c0,3.3,2.7,6,6,6h0c-3.3,0-6,2.7-6,6h0c0,3.3,2.7,6,6,6h0c3.3,0,6-2.7,6-6h0c0-3.3-2.7-6-6-6h0c3.3,0,6-2.7,6-6h0c0-3.3-2.7-6-6-6h0c-3.3,0-6,2.7-6,6ZM376,358c0,3.3,2.7,6,6,6h0c-3.3,0-6,2.7-6,6h0c0,3.3,2.7,6,6,6h0c3.3,0,6-2.7,6-6h0c0-3.3-2.7-6-6-6h0c3.3,0,6-2.7,6-6h0c0-3.3-2.7-6-6-6h0c-3.3,0-6,2.7-6,6ZM364,358c0,3.3,2.7,6,6,6h0c-3.3,0-6,2.7-6,6h0c0,3.3,2.7,6,6,6h0c-3.3,0-6,2.7-6,6h0c0,3.3,2.7,6,6,6h0c-3.3,0-6,2.7-6,6h0c0,3.3,2.7,6,6,6h0c-3.3,0-6,2.7-6,6h0c0,3.3,2.7,6,6,6h0c-3.3,0-6,2.7-6,6h0c0,3.3,2.7,6,6,6h0c3.3,0,6-2.7,6-6h0c0-3.3-2.7-6-6-6h0c3.3,0,6-2.7,6-6h0c0-3.3-2.7-6-6-6h0c3.3,0,6-2.7,6-6h0c0-3.3-2.7-6-6-6h0c3.3,0,6-2.7,6-6h0c0-3.3-2.7-6-6-6h0c3.3,0,6-2.7,6-6h0c0-3.3-2.7-6-6-6h0c3.3,0,6-2.7,6-6h0c0-3.3-2.7-6-6-6h0c-3.3,0-6,2.7-6,6ZM352,358c0,3.3,2.7,6,6,6h0c3.3,0,6-2.7,6-6h0c0-3.3-2.7-6-6-6h0c-3.3,0-6,2.7-6,6ZM304,358c0,3.3,2.7,6,6,6h0c-3.3,0-6,2.7-6,6h0c0,3.3,2.7,6,6,6h0c3.3,0,6-2.7,6-6h0c0-3.3-2.7-6-6-6h0c3.3,0,6-2.7,6-6h0c0-3.3-2.7-6-6-6h0c-3.3,0-6,2.7-6,6ZM256,358c0,3.3,2.7,6,6,6h0c3.3,0,6-2.7,6-6h0c0-3.3-2.7-6-6-6h0c-3.3,0-6,2.7-6,6ZM244,358c0,3.3,2.7,6,6,6h0c-3.3,0-6,2.7-6,6h0c0,3.3,2.7,6,6,6h0c-3.3,0-6,2.7-6,6h0c0,3.3,2.7,6,6,6h0c-3.3,0-6,2.7-6,6h0c0,3.3,2.7,6,6,6h0c3.3,0,6-2.7,6-6h0c0-3.3-2.7-6-6-6h0c3.3,0,6-2.7,6-6h0c0-3.3-2.7-6-6-6h0c3.3,0,6-2.7,6-6h0c0-3.3-2.7-6-6-6h0c3.3,0,6-2.7,6-6h0c0-3.3-2.7-6-6-6h0c-3.3,0-6,2.7-6,6ZM232,358c0,3.3,2.7,6,6,6h0c3.3,0,6-2.7,6-6h0c0-3.3-2.7-6-6-6h0c-3.3,0-6,2.7-6,6ZM184,358c0,3.3,2.7,6,6,6h0c-3.3,0-6,2.7-6,6h0c0,3.3,2.7,6,6,6h0c3.3,0,6-2.7,6-6h0c0-3.3-2.7-6-6-6h0c3.3,0,6-2.7,6-6h0c0-3.3-2.7-6-6-6h0c-3.3,0-6,2.7-6,6ZM112,358c0,3.3,2.7,6,6,6h0c-3.3,0-6,2.7-6,6h0c0,3.3,2.7,6,6,6h0c3.3,0,6-2.7,6-6h0c0-3.3-2.7-6-6-6h0c3.3,0,6-2.7,6-6h0c0-3.3-2.7-6-6-6h0c-3.3,0-6,2.7-6,6ZM76,358c0,3.3,2.7,6,6,6h0c3.3,0,6-2.7,6-6h0c0-3.3-2.7-6-6-6h0c-3.3,0-6,2.7-6,6ZM424,370c0,3.3,2.7,6,6,6h0c3.3,0,6-2.7,6-6h0c0-3.3-2.7-6-6-6h0c-3.3,0-6,2.7-6,6ZM412,370c0,3.3,2.7,6,6,6h0c-3.3,0-6,2.7-6,6h0c0,3.3,2.7,6,6,6h0c-3.3,0-6,2.7-6,6h0c0,3.3,2.7,6,6,6h0c-3.3,0-6,2.7-6,6h0c0,3.3,2.7,6,6,6h0c-3.3,0-6,2.7-6,6h0c0,3.3,2.7,6,6,6h0c-3.3,0-6,2.7-6,6h0c0,3.3,2.7,6,6,6h0c3.3,0,6-2.7,6-6h0c0-3.3-2.7-6-6-6h0c3.3,0,6-2.7,6-6h0c0-3.3-2.7-6-6-6h0c3.3,0,6-2.7,6-6h0c0-3.3-2.7-6-6-6h0c3.3,0,6-2.7,6-6h0c0-3.3-2.7-6-6-6h0c3.3,0,6-2.7,6-6h0c0-3.3-2.7-6-6-6h0c3.3,0,6-2.7,6-6h0c0-3.3-2.7-6-6-6h0c-3.3,0-6,2.7-6,6ZM388,370c0,3.3,2.7,6,6,6h0c3.3,0,6-2.7,6-6h0c0-3.3-2.7-6-6-6h0c-3.3,0-6,2.7-6,6ZM268,370c0,3.3,2.7,6,6,6h0c3.3,0,6-2.7,6-6h0c0-3.3-2.7-6-6-6h0c-3.3,0-6,2.7-6,6ZM220,370c0,3.3,2.7,6,6,6h0c3.3,0,6-2.7,6-6h0c0-3.3-2.7-6-6-6h0c-3.3,0-6,2.7-6,6ZM196,370c0,3.3,2.7,6,6,6h0c3.3,0,6-2.7,6-6h0c0-3.3-2.7-6-6-6h0c-3.3,0-6,2.7-6,6ZM148,370c0,3.3,2.7,6,6,6h0c-3.3,0-6,2.7-6,6h0c0,3.3,2.7,6,6,6h0c3.3,0,6-2.7,6-6h0c0-3.3-2.7-6-6-6h0c3.3,0,6-2.7,6-6h0c0-3.3-2.7-6-6-6h0c-3.3,0-6,2.7-6,6ZM136,370c0,3.3,2.7,6,6,6h0c3.3,0,6-2.7,6-6h0c0-3.3-2.7-6-6-6h0c-3.3,0-6,2.7-6,6ZM100,370c0,3.3,2.7,6,6,6h0c3.3,0,6-2.7,6-6h0c0-3.3-2.7-6-6-6h0c-3.3,0-6,2.7-6,6ZM40,370c0,3.3,2.7,6,6,6h0c3.3,0,6-2.7,6-6h0c0-3.3-2.7-6-6-6h0c-3.3,0-6,2.7-6,6ZM28,370c0,3.3,2.7,6,6,6h0c3.3,0,6-2.7,6-6h0c0-3.3-2.7-6-6-6h0c-3.3,0-6,2.7-6,6ZM460,382c0,3.3,2.7,6,6,6h0c-3.3,0-6,2.7-6,6h0c0,3.3,2.7,6,6,6h0c-3.3,0-6,2.7-6,6h0c0,3.3,2.7,6,6,6h0c-3.3,0-6,2.7-6,6h0c0,3.3,2.7,6,6,6h0c3.3,0,6-2.7,6-6h0c0-3.3-2.7-6-6-6h0c3.3,0,6-2.7,6-6h0c0-3.3-2.7-6-6-6h0c3.3,0,6-2.7,6-6h0c0-3.3-2.7-6-6-6h0c3.3,0,6-2.7,6-6h0c0-3.3-2.7-6-6-6h0c-3.3,0-6,2.7-6,6ZM352,382c0,3.3,2.7,6,6,6h0c3.3,0,6-2.7,6-6h0c0-3.3-2.7-6-6-6h0c-3.3,0-6,2.7-6,6ZM316,382c0,3.3,2.7,6,6,6h0c-3.3,0-6,2.7-6,6h0c0,3.3,2.7,6,6,6h0c3.3,0,6-2.7,6-6h0c0-3.3-2.7-6-6-6h0c3.3,0,6-2.7,6-6h0c0-3.3-2.7-6-6-6h0c-3.3,0-6,2.7-6,6ZM208,382c0,3.3,2.7,6,6,6h0c3.3,0,6-2.7,6-6h0c0-3.3-2.7-6-6-6h0c-3.3,0-6,2.7-6,6ZM172,382c0,3.3,2.7,6,6,6h0c-3.3,0-6,2.7-6,6h0c0,3.3,2.7,6,6,6h0c3.3,0,6-2.7,6-6h0c0-3.3-2.7-6-6-6h0c3.3,0,6-2.7,6-6h0c0-3.3-2.7-6-6-6h0c-3.3,0-6,2.7-6,6ZM436,394c0,3.3,2.7,6,6,6h0c-3.3,0-6,2.7-6,6h0c0,3.3,2.7,6,6,6h0c-3.3,0-6,2.7-6,6h0c0,3.3,2.7,6,6,6h0c3.3,0,6-2.7,6-6h0c0-3.3-2.7-6-6-6h0c3.3,0,6-2.7,6-6h0c0-3.3-2.7-6-6-6h0c3.3,0,6-2.7,6-6h0c0-3.3-2.7-6-6-6h0c-3.3,0-6,2.7-6,6ZM424,394c0,3.3,2.7,6,6,6h0c-3.3,0-6,2.7-6,6h0c0,3.3,2.7,6,6,6h0c-3.3,0-6,2.7-6,6h0c0,3.3,2.7,6,6,6h0c3.3,0,6-2.7,6-6h0c0-3.3-2.7-6-6-6h0c3.3,0,6-2.7,6-6h0c0-3.3-2.7-6-6-6h0c3.3,0,6-2.7,6-6h0c0-3.3-2.7-6-6-6h0c-3.3,0-6,2.7-6,6ZM388,394c0,3.3,2.7,6,6,6h0c3.3,0,6-2.7,6-6h0c0-3.3-2.7-6-6-6h0c-3.3,0-6,2.7-6,6ZM292,394c0,3.3,2.7,6,6,6h0c3.3,0,6-2.7,6-6h0c0-3.3-2.7-6-6-6h0c-3.3,0-6,2.7-6,6ZM256,394c0,3.3,2.7,6,6,6h0c-3.3,0-6,2.7-6,6h0c0,3.3,2.7,6,6,6h0c-3.3,0-6,2.7-6,6h0c0,3.3,2.7,6,6,6h0c-3.3,0-6,2.7-6,6h0c0,3.3,2.7,6,6,6h0c3.3,0,6-2.7,6-6h0c0-3.3-2.7-6-6-6h0c3.3,0,6-2.7,6-6h0c0-3.3-2.7-6-6-6h0c3.3,0,6-2.7,6-6h0c0-3.3-2.7-6-6-6h0c3.3,0,6-2.7,6-6h0c0-3.3-2.7-6-6-6h0c-3.3,0-6,2.7-6,6ZM232,394c0,3.3,2.7,6,6,6h0c3.3,0,6-2.7,6-6h0c0-3.3-2.7-6-6-6h0c-3.3,0-6,2.7-6,6ZM184,394c0,3.3,2.7,6,6,6h0c-3.3,0-6,2.7-6,6h0c0,3.3,2.7,6,6,6h0c-3.3,0-6,2.7-6,6h0c0,3.3,2.7,6,6,6h0c3.3,0,6-2.7,6-6h0c0-3.3-2.7-6-6-6h0c3.3,0,6-2.7,6-6h0c0-3.3-2.7-6-6-6h0c3.3,0,6-2.7,6-6h0c0-3.3-2.7-6-6-6h0c-3.3,0-6,2.7-6,6ZM352,406c0,3.3,2.7,6,6,6h0c3.3,0,6-2.7,6-6h0c0-3.3-2.7-6-6-6h0c-3.3,0-6,2.7-6,6ZM280,406c0,3.3,2.7,6,6,6h0c3.3,0,6-2.7,6-6h0c0-3.3-2.7-6-6-6h0c-3.3,0-6,2.7-6,6ZM220,406c0,3.3,2.7,6,6,6h0c3.3,0,6-2.7,6-6h0c0-3.3-2.7-6-6-6h0c-3.3,0-6,2.7-6,6ZM196,406c0,3.3,2.7,6,6,6h0c-3.3,0-6,2.7-6,6h0c0,3.3,2.7,6,6,6h0c3.3,0,6-2.7,6-6h0c0-3.3-2.7-6-6-6h0c3.3,0,6-2.7,6-6h0c0-3.3-2.7-6-6-6h0c-3.3,0-6,2.7-6,6ZM136,406c0,3.3,2.7,6,6,6h0c3.3,0,6-2.7,6-6h0c0-3.3-2.7-6-6-6h0c-3.3,0-6,2.7-6,6ZM448,418c0,3.3,2.7,6,6,6h0c-3.3,0-6,2.7-6,6h0c0,3.3,2.7,6,6,6h0c-3.3,0-6,2.7-6,6h0c0,3.3,2.7,6,6,6h0c3.3,0,6-2.7,6-6h0c0-3.3-2.7-6-6-6h0c3.3,0,6-2.7,6-6h0c0-3.3-2.7-6-6-6h0c3.3,0,6-2.7,6-6h0c0-3.3-2.7-6-6-6h0c-3.3,0-6,2.7-6,6ZM400,418c0,3.3,2.7,6,6,6h0c-3.3,0-6,2.7-6,6h0c0,3.3,2.7,6,6,6h0c3.3,0,6-2.7,6-6h0c0-3.3-2.7-6-6-6h0c3.3,0,6-2.7,6-6h0c0-3.3-2.7-6-6-6h0c-3.3,0-6,2.7-6,6ZM388,418c0,3.3,2.7,6,6,6h0c-3.3,0-6,2.7-6,6h0c0,3.3,2.7,6,6,6h0c3.3,0,6-2.7,6-6h0c0-3.3-2.7-6-6-6h0c3.3,0,6-2.7,6-6h0c0-3.3-2.7-6-6-6h0c-3.3,0-6,2.7-6,6ZM376,418c0,3.3,2.7,6,6,6h0c-3.3,0-6,2.7-6,6h0c0,3.3,2.7,6,6,6h0c-3.3,0-6,2.7-6,6h0c0,3.3,2.7,6,6,6h0c3.3,0,6-2.7,6-6h0c0-3.3-2.7-6-6-6h0c3.3,0,6-2.7,6-6h0c0-3.3-2.7-6-6-6h0c3.3,0,6-2.7,6-6h0c0-3.3-2.7-6-6-6h0c-3.3,0-6,2.7-6,6ZM316,418c0,3.3,2.7,6,6,6h0c-3.3,0-6,2.7-6,6h0c0,3.3,2.7,6,6,6h0c-3.3,0-6,2.7-6,6h0c0,3.3,2.7,6,6,6h0c3.3,0,6-2.7,6-6h0c0-3.3-2.7-6-6-6h0c3.3,0,6-2.7,6-6h0c0-3.3-2.7-6-6-6h0c3.3,0,6-2.7,6-6h0c0-3.3-2.7-6-6-6h0c-3.3,0-6,2.7-6,6ZM292,418c0,3.3,2.7,6,6,6h0c3.3,0,6-2.7,6-6h0c0-3.3-2.7-6-6-6h0c-3.3,0-6,2.7-6,6ZM268,418c0,3.3,2.7,6,6,6h0c3.3,0,6-2.7,6-6h0c0-3.3-2.7-6-6-6h0c-3.3,0-6,2.7-6,6ZM172,418c0,3.3,2.7,6,6,6h0c3.3,0,6-2.7,6-6h0c0-3.3-2.7-6-6-6h0c-3.3,0-6,2.7-6,6ZM160,418c0,3.3,2.7,6,6,6h0c-3.3,0-6,2.7-6,6h0c0,3.3,2.7,6,6,6h0c-3.3,0-6,2.7-6,6h0c0,3.3,2.7,6,6,6h0c3.3,0,6-2.7,6-6h0c0-3.3-2.7-6-6-6h0c3.3,0,6-2.7,6-6h0c0-3.3-2.7-6-6-6h0c3.3,0,6-2.7,6-6h0c0-3.3-2.7-6-6-6h0c-3.3,0-6,2.7-6,6ZM148,418c0,3.3,2.7,6,6,6h0c3.3,0,6-2.7,6-6h0c0-3.3-2.7-6-6-6h0c-3.3,0-6,2.7-6,6ZM304,430c0,3.3,2.7,6,6,6h0c-3.3,0-6,2.7-6,6h0c0,3.3,2.7,6,6,6h0c-3.3,0-6,2.7-6,6h0c0,3.3,2.7,6,6,6h0c3.3,0,6-2.7,6-6h0c0-3.3-2.7-6-6-6h0c3.3,0,6-2.7,6-6h0c0-3.3-2.7-6-6-6h0c3.3,0,6-2.7,6-6h0c0-3.3-2.7-6-6-6h0c-3.3,0-6,2.7-6,6ZM232,430c0,3.3,2.7,6,6,6h0c-3.3,0-6,2.7-6,6h0c0,3.3,2.7,6,6,6h0c3.3,0,6-2.7,6-6h0c0-3.3-2.7-6-6-6h0c3.3,0,6-2.7,6-6h0c0-3.3-2.7-6-6-6h0c-3.3,0-6,2.7-6,6ZM220,430c0,3.3,2.7,6,6,6h0c-3.3,0-6,2.7-6,6h0c0,3.3,2.7,6,6,6h0c3.3,0,6-2.7,6-6h0c0-3.3-2.7-6-6-6h0c3.3,0,6-2.7,6-6h0c0-3.3-2.7-6-6-6h0c-3.3,0-6,2.7-6,6ZM460,442c0,3.3,2.7,6,6,6h0c-3.3,0-6,2.7-6,6h0c0,3.3,2.7,6,6,6h0c-3.3,0-6,2.7-6,6h0c0,3.3,2.7,6,6,6h0c3.3,0,6-2.7,6-6h0c0-3.3-2.7-6-6-6h0c3.3,0,6-2.7,6-6h0c0-3.3-2.7-6-6-6h0c3.3,0,6-2.7,6-6h0c0-3.3-2.7-6-6-6h0c-3.3,0-6,2.7-6,6ZM436,442c0,3.3,2.7,6,6,6h0c-3.3,0-6,2.7-6,6h0c0,3.3,2.7,6,6,6h0c3.3,0,6-2.7,6-6h0c0-3.3-2.7-6-6-6h0c3.3,0,6-2.7,6-6h0c0-3.3-2.7-6-6-6h0c-3.3,0-6,2.7-6,6ZM424,442c0,3.3,2.7,6,6,6h0c-3.3,0-6,2.7-6,6h0c0,3.3,2.7,6,6,6h0c3.3,0,6-2.7,6-6h0c0-3.3-2.7-6-6-6h0c3.3,0,6-2.7,6-6h0c0-3.3-2.7-6-6-6h0c-3.3,0-6,2.7-6,6ZM364,442c0,3.3,2.7,6,6,6h0c3.3,0,6-2.7,6-6h0c0-3.3-2.7-6-6-6h0c-3.3,0-6,2.7-6,6ZM340,442c0,3.3,2.7,6,6,6h0c-3.3,0-6,2.7-6,6h0c0,3.3,2.7,6,6,6h0c3.3,0,6-2.7,6-6h0c0-3.3-2.7-6-6-6h0c3.3,0,6-2.7,6-6h0c0-3.3-2.7-6-6-6h0c-3.3,0-6,2.7-6,6ZM292,442c0,3.3,2.7,6,6,6h0c3.3,0,6-2.7,6-6h0c0-3.3-2.7-6-6-6h0c-3.3,0-6,2.7-6,6ZM280,442c0,3.3,2.7,6,6,6h0c3.3,0,6-2.7,6-6h0c0-3.3-2.7-6-6-6h0c-3.3,0-6,2.7-6,6ZM196,442c0,3.3,2.7,6,6,6h0c-3.3,0-6,2.7-6,6h0c0,3.3,2.7,6,6,6h0c3.3,0,6-2.7,6-6h0c0-3.3-2.7-6-6-6h0c3.3,0,6-2.7,6-6h0c0-3.3-2.7-6-6-6h0c-3.3,0-6,2.7-6,6ZM184,442c0,3.3,2.7,6,6,6h0c-3.3,0-6,2.7-6,6h0c0,3.3,2.7,6,6,6h0c-3.3,0-6,2.7-6,6h0c0,3.3,2.7,6,6,6h0c3.3,0,6-2.7,6-6h0c0-3.3-2.7-6-6-6h0c3.3,0,6-2.7,6-6h0c0-3.3-2.7-6-6-6h0c3.3,0,6-2.7,6-6h0c0-3.3-2.7-6-6-6h0c-3.3,0-6,2.7-6,6ZM172,442c0,3.3,2.7,6,6,6h0c-3.3,0-6,2.7-6,6h0c0,3.3,2.7,6,6,6h0c3.3,0,6-2.7,6-6h0c0-3.3-2.7-6-6-6h0c3.3,0,6-2.7,6-6h0c0-3.3-2.7-6-6-6h0c-3.3,0-6,2.7-6,6ZM148,442c0,3.3,2.7,6,6,6h0c-3.3,0-6,2.7-6,6h0c0,3.3,2.7,6,6,6h0c3.3,0,6-2.7,6-6h0c0-3.3-2.7-6-6-6h0c3.3,0,6-2.7,6-6h0c0-3.3-2.7-6-6-6h0c-3.3,0-6,2.7-6,6ZM136,442c0,3.3,2.7,6,6,6h0c3.3,0,6-2.7,6-6h0c0-3.3-2.7-6-6-6h0c-3.3,0-6,2.7-6,6ZM124,442c0,3.3,2.7,6,6,6h0c-3.3,0-6,2.7-6,6h0c0,3.3,2.7,6,6,6h0c3.3,0,6-2.7,6-6h0c0-3.3-2.7-6-6-6h0c3.3,0,6-2.7,6-6h0c0-3.3-2.7-6-6-6h0c-3.3,0-6,2.7-6,6ZM388,454c0,3.3,2.7,6,6,6h0c-3.3,0-6,2.7-6,6h0c0,3.3,2.7,6,6,6h0c3.3,0,6-2.7,6-6h0c0-3.3-2.7-6-6-6h0c3.3,0,6-2.7,6-6h0c0-3.3-2.7-6-6-6h0c-3.3,0-6,2.7-6,6ZM352,454c0,3.3,2.7,6,6,6h0c3.3,0,6-2.7,6-6h0c0-3.3-2.7-6-6-6h0c-3.3,0-6,2.7-6,6ZM328,454c0,3.3,2.7,6,6,6h0c-3.3,0-6,2.7-6,6h0c0,3.3,2.7,6,6,6h0c3.3,0,6-2.7,6-6h0c0-3.3-2.7-6-6-6h0c3.3,0,6-2.7,6-6h0c0-3.3-2.7-6-6-6h0c-3.3,0-6,2.7-6,6ZM244,454c0,3.3,2.7,6,6,6h0c-3.3,0-6,2.7-6,6h0c0,3.3,2.7,6,6,6h0c3.3,0,6-2.7,6-6h0c0-3.3-2.7-6-6-6h0c3.3,0,6-2.7,6-6h0c0-3.3-2.7-6-6-6h0c-3.3,0-6,2.7-6,6ZM208,454c0,3.3,2.7,6,6,6h0c-3.3,0-6,2.7-6,6h0c0,3.3,2.7,6,6,6h0c3.3,0,6-2.7,6-6h0c0-3.3-2.7-6-6-6h0c3.3,0,6-2.7,6-6h0c0-3.3-2.7-6-6-6h0c-3.3,0-6,2.7-6,6ZM412,466c0,3.3,2.7,6,6,6h0c3.3,0,6-2.7,6-6h0c0-3.3-2.7-6-6-6h0c-3.3,0-6,2.7-6,6ZM376,466c0,3.3,2.7,6,6,6h0c3.3,0,6-2.7,6-6h0c0-3.3-2.7-6-6-6h0c-3.3,0-6,2.7-6,6ZM364,466c0,3.3,2.7,6,6,6h0c3.3,0,6-2.7,6-6h0c0-3.3-2.7-6-6-6h0c-3.3,0-6,2.7-6,6ZM268,466c0,3.3,2.7,6,6,6h0c3.3,0,6-2.7,6-6h0c0-3.3-2.7-6-6-6h0c-3.3,0-6,2.7-6,6ZM232,466c0,3.3,2.7,6,6,6h0c3.3,0,6-2.7,6-6h0c0-3.3-2.7-6-6-6h0c-3.3,0-6,2.7-6,6ZM220,466c0,3.3,2.7,6,6,6h0c3.3,0,6-2.7,6-6h0c0-3.3-2.7-6-6-6h0c-3.3,0-6,2.7-6,6ZM160,466c0,3.3,2.7,6,6,6h0c3.3,0,6-2.7,6-6h0c0-3.3-2.7-6-6-6h0c-3.3,0-6,2.7-6,6Z"/>
    </clipPath>
    <clipPath id="clippath-1">
      <path class="st0" d="M70,28c-23.2,0-42,18.9-41.9,42,0,23.2,18.9,42,42,41.9,23.2,0,42-18.9,41.9-42,0-23.2-18.8-41.9-41.9-41.9h0ZM70,40c16.6,0,30,13.5,29.9,30,0,16.6-13.5,30-30,30-16.6,0-30-13.5-29.9-30,0-16.5,13.4-29.9,29.9-29.9h0Z"/>
    </clipPath>
    <clipPath id="clippath-2">
      <circle class="st0" cx="70" cy="70" r="18"/>
    </clipPath>
    <clipPath id="clippath-3">
      <path class="st0" d="M472,70c0-23.2-18.9-42-42-41.9-23.2,0-42,18.9-41.9,42,0,23.2,18.9,42,42,42,23.2,0,41.9-18.8,41.9-42h0ZM460,70c0,16.6-13.5,30-30,29.9s-30-13.5-29.9-30,13.5-30,30-29.9c16.5,0,29.9,13.4,29.9,29.9h0Z"/>
    </clipPath>
    <clipPath id="clippath-4">
      <circle class="st0" cx="430" cy="70" r="18"/>
    </clipPath>
    <clipPath id="clippath-5">
      <path class="st0" d="M28,430c0,23.2,18.9,42,42,41.9,23.2,0,42-18.9,41.9-42,0-23.2-18.9-42-42-42-23.2,0-41.9,18.8-41.9,42h0ZM40,430c0-16.6,13.5-30,30-29.9s30,13.5,29.9,30c0,16.6-13.5,30-30,29.9-16.5,0-29.9-13.4-29.9-29.9h0Z"/>
    </clipPath>
    <clipPath id="clippath-6">
      <circle class="st0" cx="70" cy="430" r="18"/>
    </clipPath>
  </defs>
  <g class="st8">
    <rect class="st7" width="500" height="500"/>
  </g>
  <g class="st1">
    <rect class="st7" x="28" y="28" width="84" height="84"/>
  </g>
  <g class="st4">
    <rect class="st7" x="52" y="52" width="36" height="36"/>
  </g>
  <g class="st2">
    <rect class="st7" x="388" y="28" width="84" height="84"/>
  </g>
  <g class="st3">
    <rect class="st7" x="412" y="52" width="36" height="36"/>
  </g>
  <g class="st6">
    <rect class="st7" x="28" y="388" width="84" height="84"/>
  </g>
  <g class="st5">
    <rect class="st7" x="52" y="412" width="36" height="36"/>
  </g>
</svg>