<svg xmlns="http://www.w3.org/2000/svg" xmlns:xlink="http://www.w3.org/1999/xlink" xmlns:serif="http://www.serif.com/" width="100%" height="100%" viewBox="0 0 131 67" xml:space="preserve" style="fill-rule:evenodd;clip-rule:evenodd;stroke-linejoin:round;stroke-miterlimit:2;"> <g transform="matrix(1,0,0,1,-116.3,0)"> <g> <g> <clipPath id="_clip1"> <rect x="116.6" y="0" width="130.1" height="66.6"></rect> </clipPath> <g clip-path="url(#_clip1)"> <path d="M139.3,42C139.3,37.2 135.4,33.3 130.5,33.3C125.6,33.3 121.9,37.3 121.9,42C121.9,46.8 125.9,50.7 130.6,50.7C135.3,50.7 139.3,46.9 139.3,42M116.6,53.5L116.6,42C116.6,41 116.7,40 116.9,39C117.3,37.3 118,35.7 118.9,34.3C120.6,31.7 122.9,29.9 125.8,28.9C128,28.1 130.4,27.9 132.7,28.2C134.2,28.4 135.6,28.9 136.9,29.5C138.7,30.4 140.2,31.6 141.5,33.2C143.2,35.3 144.2,37.7 144.5,40.4C144.6,41.6 144.6,42.7 144.4,43.9C144.2,45.4 143.7,46.9 143,48.2C142.2,49.8 141.2,51.1 139.9,52.3C138.3,53.8 136.4,54.8 134.2,55.4C132.3,55.9 130.4,56.1 128.4,55.8C126.1,55.5 124,54.7 122.2,53.3C122.1,53.2 122,53.2 121.9,53.1C121.8,53 121.7,53.1 121.7,53.2L121.7,66.1C121.7,66.4 121.6,66.5 121.3,66.5L116.6,66.5C116.4,66.5 116.3,66.4 116.3,66.2L116.3,65.6C116.6,61.7 116.6,57.6 116.6,53.5" style="fill:rgb(82,51,115);fill-rule:nonzero;"></path> </g> </g> <g> <path d="M169.6,42.3C169.7,37.8 166.2,33.6 161.1,33.5C156,33.4 152.4,37.4 152.2,41.7C152,46.4 155.7,50.6 160.7,50.8C165.5,50.9 169.5,47.1 169.6,42.3M174.9,42.4L174.9,55.3C174.9,56.1 174.9,56.1 174.2,56.1L170,56.1C169.7,56 169.6,56 169.6,55.7L169.6,53.6C169.6,53.5 169.6,53.4 169.5,53.3C169.4,53.2 169.3,53.3 169.2,53.4C169.1,53.4 169.1,53.5 169,53.5C167.3,54.7 165.4,55.5 163.3,55.9C160.7,56.3 158.1,56.1 155.7,55.1C151.9,53.6 149.3,50.9 147.8,47.2C146.6,44.2 146.5,41.2 147.4,38.1C148,36.2 148.9,34.5 150.2,33C151.2,31.8 152.4,30.8 153.8,30.1C156.1,28.8 158.6,28.1 161.2,28.2C164.8,28.3 168,29.6 170.6,32.1C172.1,33.5 173.2,35.2 173.9,37C174.6,38.7 174.9,40.6 174.9,42.4Z" style="fill:rgb(82,51,115);fill-rule:nonzero;"></path> </g> <g> <path d="M204.2,32.5L204.2,36.2C204.2,37.4 204,38.5 203.7,39.7C202.7,43 200.8,45.6 198,47.6C196.5,48.6 194.8,49.3 193,49.7L192.7,49.7C192.4,49.8 192.3,49.8 192.3,50.2L192.3,55.8C192.3,56.1 192.2,56.2 191.9,56.2L187.3,56.2C187,56.2 187,56.2 186.9,55.9L186.9,50.3C186.9,49.8 186.9,49.7 186.3,49.6C184.5,49.1 182.9,48.3 181.5,47.2C179.7,45.8 178.3,44.1 177.3,42C176.4,40 175.9,38 176,35.8L176,28.3C176,28.2 176.1,28.1 176.2,28.1L181.1,28.1C181.2,28.1 181.3,28.2 181.3,28.3L181.3,35.7C181.3,36.8 181.4,37.8 181.8,38.8C182.5,40.9 183.9,42.5 185.8,43.6C187.4,44.5 189.1,44.8 190.8,44.7C192.4,44.6 193.8,44 195.1,43.1C196.6,42 197.7,40.5 198.3,38.7C198.6,37.9 198.7,37 198.7,36.2L198.7,28.9C198.7,28 198.7,28.1 199.5,28.1L203.8,28.1C204,28.1 204.1,28.2 204.1,28.4L204.1,28.9C204.2,30 204.2,31.2 204.2,32.5Z" style="fill:rgb(82,51,115);fill-rule:nonzero;"></path> </g> <g> <clipPath id="_clip2"> <rect x="116.6" y="0" width="130.1" height="66.6"></rect> </clipPath> <g clip-path="url(#_clip2)"> <path d="M236.2,23.8C233.3,23.8 230.8,21.4 230.9,18.5C230.9,15.6 233.4,13.2 236.2,13.2C239,13.2 241.4,15.5 241.4,18.5C241.5,21.4 239.2,23.8 236.2,23.8M230,21.5C229.5,22.9 228,24 226.5,23.9C224.9,23.9 223.5,22.8 223.1,21.3C223,20.9 222.9,20.5 222.9,20.1L222.9,16.6C222.9,14.7 224.3,13.2 226.2,13L226.4,13C226.5,13 226.7,13.1 226.7,13.2L226.7,14.6C226.7,14.7 226.6,14.8 226.5,14.9C226.3,14.9 226.1,15 225.9,15.1C225.3,15.3 224.9,15.8 224.8,16.5C224.7,16.8 224.9,16.9 225.2,16.8C225.4,16.7 225.6,16.6 225.9,16.6C227.1,16.3 228.3,16.7 229.2,17.5C230.2,18.7 230.6,20 230,21.5M221.2,18.7C221.7,19.3 221.9,19.9 221.9,20.7C221.9,22.4 220.6,23.7 218.9,23.8L215.8,23.8C215.5,23.8 215.5,23.7 215.5,23.4L215.5,22.3C215.5,22 215.6,21.9 215.9,21.9L218.5,21.9C218.7,21.9 219,21.9 219.2,21.8C219.7,21.6 220,21.2 220.1,20.7C220.1,20.2 219.8,19.7 219.4,19.5C219.2,19.4 219,19.4 218.8,19.4L217.6,19.4C217.4,19.4 217.3,19.3 217.3,19.2L217.3,17.8C217.3,17.6 217.4,17.6 217.5,17.6L218.6,17.6C218.8,17.6 219,17.6 219.2,17.5C219.7,17.3 220.1,16.8 220,16.2C219.9,15.6 219.5,15.2 218.9,15.1L215.6,15.1C215.5,15.1 215.4,15 215.4,14.9L215.4,13.5C215.4,13.4 215.5,13.3 215.6,13.3L218.8,13.3C220.9,13.3 222.3,15.3 221.7,17.4C221.6,17.8 221.4,18.1 221.1,18.4C221.1,18.5 221.1,18.6 221.2,18.7M228.2,0C217.7,0 209.6,8.5 209.6,18.6C209.6,28.7 217.7,37.1 228.1,37.1C238.6,37.1 246.7,28.7 246.7,18.6C246.8,8.4 238.5,0 228.2,0" style="fill:rgb(82,51,115);fill-rule:nonzero;"></path> </g> </g> <g> <path d="M236.2,21.8C234.3,21.8 232.9,20.4 232.9,18.5C232.9,16.8 234.2,15.1 236.2,15.1C238.1,15.1 239.5,16.6 239.5,18.4C239.5,20.4 238,21.8 236.2,21.8" style="fill:rgb(82,51,115);fill-rule:nonzero;"></path> </g> <g> <path d="M224.8,20.2C224.8,19.2 225.6,18.4 226.6,18.4C227.6,18.4 228.4,19.2 228.4,20.2C228.4,21.2 227.6,22 226.6,22C225.5,22 224.7,21.2 224.8,20.2" style="fill:rgb(82,51,115);fill-rule:nonzero;"></path> </g> </g> </g> </svg>