<?xml version="1.0" encoding="UTF-8"?>
<svg id="Layer_1" xmlns="http://www.w3.org/2000/svg" xmlns:xlink="http://www.w3.org/1999/xlink" xmlns:serif="http://www.serif.com/" version="1.1" viewBox="0 0 2048 1090">
  <!-- Generator: Adobe Illustrator 29.0.0, SVG Export Plug-In . SVG Version: 2.1.0 Build 186)  -->
  <defs>
    <style>
      .st0 {
        fill: none;
      }

      .st1 {
        clip-path: url(#clippath-1);
      }

      .st2 {
        fill: #fff;
      }

      .st3 {
        clip-path: url(#clippath);
      }
    </style>
    <clipPath id="clippath">
      <rect class="st0" x="4.7" y="21.3" width="2033.9" height="1041.2"/>
    </clipPath>
    <clipPath id="clippath-1">
      <rect class="st0" x="4.7" y="21.3" width="2033.9" height="1041.2"/>
    </clipPath>
  </defs>
  <g class="st3">
    <path class="st2" d="M359.6,677.9c0-75-61-136-137.6-136s-134.4,62.5-134.4,136,62.5,136,136,136,136-59.4,136-136M4.7,857.7v-179.8c0-15.6,1.6-31.3,4.7-46.9,6.3-26.6,17.2-51.6,31.3-73.5,26.6-40.6,62.5-68.8,107.9-84.4,34.4-12.5,71.9-15.6,107.9-10.9,23.5,3.1,45.3,10.9,65.7,20.3,28.1,14.1,51.6,32.8,71.9,57.8,26.6,32.8,42.2,70.4,46.9,112.6,1.6,18.8,1.6,36-1.6,54.7-3.1,23.5-10.9,46.9-21.9,67.2-12.5,25-28.1,45.3-48.5,64.1-25,23.5-54.7,39.1-89.1,48.5-29.7,7.8-59.4,10.9-90.7,6.3-36-4.7-68.8-17.2-96.9-39.1-1.6-1.6-3.1-1.6-4.7-3.1-1.6-1.6-3.1,0-3.1,1.6v201.7c0,4.7-1.6,6.3-6.3,6.3H4.7C1.6,1060.9,0,1059.3,0,1056.2v-9.4c4.7-61,4.7-125.1,4.7-189.2"/>
  </g>
  <path class="st2" d="M833.3,682.6c1.6-70.4-53.2-136-132.9-137.6-79.7-1.6-136,61-139.1,128.2-3.1,73.5,54.7,139.1,132.9,142.3,75,1.6,137.6-57.8,139.1-132.9M916.1,684.1v201.7q0,12.5-10.9,12.5h-65.7c-4.7-1.6-6.3-1.6-6.3-6.3v-32.8c0-1.6,0-3.1-1.6-4.7-1.6-1.6-3.1,0-4.7,1.6-1.6,0-1.6,1.6-3.1,1.6-26.6,18.8-56.3,31.3-89.1,37.5-40.6,6.3-81.3,3.1-118.8-12.5-59.4-23.5-100.1-65.7-123.5-123.5-18.8-46.9-20.3-93.8-6.3-142.3,9.4-29.7,23.5-56.3,43.8-79.7,15.6-18.8,34.4-34.4,56.3-45.3,36-20.3,75-31.3,115.7-29.7,56.3,1.6,106.3,21.9,147,61,23.5,21.9,40.6,48.5,51.6,76.6,10.9,26.6,15.6,56.3,15.6,84.4Z"/>
  <path class="st2" d="M1374.2,529.4v57.8c0,18.8-3.1,36-7.8,54.7-15.6,51.6-45.3,92.2-89.1,123.5-23.5,15.6-50,26.6-78.2,32.8h-4.7c-4.7,1.6-6.3,1.6-6.3,7.8v87.5c0,4.7-1.6,6.3-6.3,6.3h-71.9q-4.7,0-6.3-4.7v-87.5c0-7.8,0-9.4-9.4-10.9-28.1-7.8-53.2-20.3-75-37.5-28.1-21.9-50-48.5-65.7-81.3-14.1-31.3-21.9-62.5-20.3-96.9v-117.3c0-1.6,1.6-3.1,3.1-3.1h76.6c1.6,0,3.1,1.6,3.1,3.1v115.7c0,17.2,1.6,32.8,7.8,48.5,10.9,32.8,32.8,57.8,62.5,75,25,14.1,51.6,18.8,78.2,17.2,25-1.6,46.9-10.9,67.2-25,23.5-17.2,40.6-40.6,50-68.8,4.7-12.5,6.3-26.6,6.3-39.1v-114.1c0-14.1,0-12.5,12.5-12.5h67.2c3.1,0,4.7,1.6,4.7,4.7v7.8c1.6,17.2,1.6,36,1.6,56.3Z"/>
  <g class="st1">
    <path class="st2" d="M1874.5,393.4c-45.3,0-84.4-37.5-82.9-82.9,0-45.3,39.1-82.9,82.9-82.9s81.3,36,81.3,82.9c1.6,45.3-34.4,82.9-81.3,82.9M1777.5,357.4c-7.8,21.9-31.3,39.1-54.7,37.5-25,0-46.9-17.2-53.2-40.6-1.6-6.3-3.1-12.5-3.1-18.8v-54.7c0-29.7,21.9-53.2,51.6-56.3h3.1c1.6,0,4.7,1.6,4.7,3.1v21.9c0,1.6-1.6,3.1-3.1,4.7-3.1,0-6.3,1.6-9.4,3.1-9.4,3.1-15.6,10.9-17.2,21.9-1.6,4.7,1.6,6.3,6.3,4.7,3.1-1.6,6.3-3.1,10.9-3.1,18.8-4.7,37.5,1.6,51.6,14.1,15.6,18.8,21.9,39.1,12.5,62.5M1640,313.6c7.8,9.4,10.9,18.8,10.9,31.3,0,26.6-20.3,46.9-46.9,48.5h-48.5c-4.7,0-4.7-1.6-4.7-6.3v-17.2c0-4.7,1.6-6.3,6.3-6.3h40.6c3.1,0,7.8,0,10.9-1.6,7.8-3.1,12.5-9.4,14.1-17.2,0-7.8-4.7-15.6-10.9-18.8-3.1-1.6-6.3-1.6-9.4-1.6h-18.8c-3.1,0-4.7-1.6-4.7-3.1v-21.9c0-3.1,1.6-3.1,3.1-3.1h17.2c3.1,0,6.3,0,9.4-1.6,7.8-3.1,14.1-10.9,12.5-20.3-1.6-9.4-7.8-15.6-17.2-17.2h-51.6c-1.6,0-3.1-1.6-3.1-3.1v-21.9c0-1.6,1.6-3.1,3.1-3.1h50c32.8,0,54.7,31.3,45.3,64.1-1.6,6.3-4.7,10.9-9.4,15.6,0,1.6,0,3.1,1.6,4.7M1749.4,21.3c-164.2,0-290.8,132.9-290.8,290.8s126.6,289.2,289.2,289.2,290.8-131.3,290.8-289.2c1.6-159.5-128.2-290.8-289.2-290.8"/>
  </g>
  <path class="st2" d="M1874.5,362.1c-29.7,0-51.6-21.9-51.6-51.6s20.3-53.2,51.6-53.2,51.6,23.5,51.6,51.6-23.5,53.2-51.6,53.2"/>
  <path class="st2" d="M1696.2,337.1c0-15.6,12.5-28.1,28.1-28.1s28.1,12.5,28.1,28.1-12.5,28.1-28.1,28.1-29.7-12.5-28.1-28.1"/>
</svg>