<?xml version="1.0" encoding="UTF-8"?>
<svg id="Layer_1" xmlns="http://www.w3.org/2000/svg" xmlns:serif="http://www.serif.com/" version="1.1" viewBox="0 0 2048 1090">
  <!-- Generator: Adobe Illustrator 29.0.0, SVG Export Plug-In . SVG Version: 2.1.0 Build 186)  -->
  <defs>
    <style>
      .st0 {
        fill: #fff;
      }
    </style>
  </defs>
  <g>
    <path class="st0" d="M864.3,336.1c-51.6,0-93.7,42.1-93.7,93.7s42.1,93.7,93.7,93.7,93.7-42.1,93.7-93.7-42.1-93.7-93.7-93.7"/>
    <path class="st0" d="M1191.3,337c-51.6,0-93.7,42.1-93.7,93.7s42.1,93.7,93.7,93.7,93.7-42.1,93.7-93.7-42.1-93.7-93.7-93.7"/>
    <g>
      <path class="st0" d="M585.6,0v884.9h884.9V0h-884.9ZM864.3,580.4c-35.4,0-67.9-12.4-93.7-33v147.7h-56.9v-265.3c0-83.2,67.4-150.6,150.6-150.6s150.6,67.4,150.6,150.6-67.9,150.6-150.6,150.6ZM1341.9,580.9h-56.9v-32c-25.8,20.6-58.3,33-93.7,33-83.2,0-150.6-67.4-150.6-150.6s67.4-150.6,150.6-150.6,150.6,67.4,150.6,150.6v149.6Z"/>
      <path class="st0" d="M864.3,336.1c-51.6,0-93.7,42.1-93.7,93.7s42.1,93.7,93.7,93.7,93.7-42.1,93.7-93.7-42.1-93.7-93.7-93.7Z"/>
      <circle class="st0" cx="1191.3" cy="430.7" r="93.7"/>
    </g>
  </g>
  <g>
    <path class="st0" d="M252.4,1058c-7.2,0-12.9-1.9-16.3-5.7s-5.3-10-5.3-18.2v-33h-14.8v-9.6h14.8v-18.6h11v18.6h22.5v9.6h-22.5v32c0,5.7,1,9.6,2.9,12,1.9,2.4,5.3,3.8,9.6,3.8s8.6-1,12.9-3.3l1.4,9.1c-1.9,1.4-4.3,1.9-7.2,2.9-2.9,1-6.2.5-9.1.5Z"/>
    <path class="st0" d="M283.9,1056.5v-105.2h11v50.2c1.9-3.8,4.8-6.7,8.6-9.1,3.8-2.4,8.1-3.3,12.4-3.3,7.6,0,13.4,2.4,17.7,7.2,4.3,4.8,6.2,11.5,6.2,20.6v39.2h-11v-36.8c0-13.4-5.3-20.1-15.3-20.1s-10.5,1.9-13.4,5.7c-2.9,3.8-4.8,9.1-4.8,15.8v35.9h-11.5Z"/>
    <path class="st0" d="M393.4,1058c-7.2,0-13.9-1.4-19.1-4.3-5.3-2.9-9.6-6.7-12.4-12-2.9-5.3-4.3-11-4.3-18.2s1.4-12.9,4.3-18.2c2.9-5.3,6.7-9.1,11.5-12.4,4.8-2.9,10.5-4.3,16.7-4.3s11,1.4,15.3,3.8c4.3,2.9,7.6,6.2,10,11s3.8,10.5,3.8,16.7v5.7h-50.2c1,6.7,3.3,12,7.6,15.8,4.3,3.8,10.5,5.3,17.7,5.3s14.8-1.9,22-5.3l1.4,9.1c-2.9,1.9-6.7,3.3-11,4.3-4.3,2.4-8.6,2.9-13.4,2.9ZM389.1,998.7c-5.7,0-10,1.9-13.9,5.3-3.8,3.3-5.7,8.1-6.7,14.3h39.7c0-1,0-1.9-.5-2.9-.5-5.7-2.9-9.6-6.2-12.4-2.9-2.9-7.2-4.3-12.4-4.3Z"/>
    <path class="st0" d="M468,1087.6v-96.1h10.5l.5,12.4c2.4-4.8,5.7-8.1,10-11,4.3-2.4,9.1-3.8,14.8-3.8s11.5,1.4,15.8,4.3c4.8,2.9,8.1,7.2,11,12,2.9,5.3,3.8,11,3.8,17.7s-1.4,12-4.3,17.2-6.7,9.6-11.5,12.4-10.5,4.8-16.3,4.8-9.6-1-13.4-3.3c-3.8-2.4-7.2-5.7-9.6-10v43h-11.5v.5ZM500.5,1048.4c4.3,0,8.6-1,12-2.9s6.2-4.8,8.1-8.6c1.9-3.8,2.9-8.1,2.9-12.9s-1-9.1-2.9-12.9c-1.9-3.8-4.8-6.7-8.1-8.6s-7.2-2.9-12-2.9-8.1,1-11.5,2.9c-3.3,1.9-6.2,4.8-8.1,8.6-1.9,3.8-2.9,8.1-2.9,12.9s1,9.1,2.9,12.9c1.9,3.8,4.8,6.7,8.1,8.6,3.3,1.9,7.2,2.9,11.5,2.9Z"/>
    <path class="st0" d="M580.4,1058c-5.7,0-11.5-1.4-15.8-4.3-4.8-2.9-8.6-7.2-11-12.4-2.4-5.3-3.8-11-3.8-17.7s1.4-12,4.3-17.2,6.7-9.6,11.5-12.4c4.8-2.9,10.5-4.8,16.3-4.8s9.6,1.4,13.4,3.8c4.3,2.4,7.2,5.7,10,10l.5-12h10.5v64.5h-10.5l-.5-12c-2.4,4.3-6.2,7.6-10,10-3.8,2.4-9.6,4.3-14.8,4.3ZM583.2,1048.4c4.3,0,8.6-1,12-2.9,3.3-1.9,6.2-4.8,8.1-8.6,1.9-3.8,2.9-8.1,2.9-12.9s-1-9.1-2.9-12.9c-1.9-3.8-4.8-6.7-8.1-8.6-3.3-1.9-7.2-2.9-12-2.9s-8.1,1-11.5,2.9-6.2,4.8-8.1,8.6c-1.9,3.8-2.9,8.1-2.9,12.9s1,9.1,2.9,12.9c1.9,3.8,4.8,6.7,8.1,8.6,2.9,1.9,6.7,2.9,11.5,2.9Z"/>
    <path class="st0" d="M637.7,1087.6l17.7-36.8-27.7-59.3h12l21.5,47.3,21-47.3h11.5l-44.5,96.1h-11.5Z"/>
    <path class="st0" d="M708.5,1057.5v-66h10.5v11c1.9-4.3,4.8-7.2,8.1-9.6,3.8-2.4,8.1-3.3,12.9-3.3,10.5,0,17.7,4.8,21,14.3,1.9-4.3,4.8-8.1,8.6-10.5,3.8-2.4,8.6-3.8,13.4-3.8,7.6,0,13.4,2.4,17.7,7.2,4.3,4.8,6.2,11.5,6.2,20.6v39.2h-11v-36.8c0-13.4-5.3-20.1-15.3-20.1s-9.6,1.9-12.9,5.7c-3.3,3.8-4.8,9.1-4.8,15.8v35.9h-11v-37.3c0-13.4-5.3-19.6-15.3-19.6s-10,1.9-12.9,5.7c-3.3,3.8-4.8,9.1-4.8,15.8v35.9h-10.5Z"/>
    <path class="st0" d="M860.5,1058c-7.2,0-13.9-1.4-19.1-4.3-5.3-2.9-9.6-6.7-12.4-12-2.9-5.3-4.3-11-4.3-18.2s1.4-12.9,4.3-18.2c2.9-5.3,6.7-9.1,11.5-12.4,4.8-2.9,10.5-4.3,16.7-4.3s11,1.4,15.3,3.8c4.3,2.9,7.6,6.2,10,11s3.8,10.5,3.8,16.7v5.7h-50.2c1,6.7,3.3,12,7.6,15.8,4.3,3.8,10.5,5.3,17.7,5.3s14.8-1.9,22-5.3l1.4,9.1c-2.9,1.9-6.7,3.3-11,4.3-4.3,2.4-8.6,2.9-13.4,2.9ZM856.2,998.7c-5.7,0-10,1.9-13.9,5.3-3.8,3.3-5.7,8.1-6.7,14.3h39.7c0-1,0-1.9-.5-2.9-.5-5.7-2.9-9.6-6.2-12.4-2.9-2.9-7.2-4.3-12.4-4.3Z"/>
    <path class="st0" d="M905.9,1057v-65.5h10.5v11c1.9-4.3,4.8-7.2,8.6-9.6,3.8-2.4,8.1-3.3,12.9-3.3,7.6,0,13.4,2.4,17.7,7.2s6.2,11.5,6.2,20.6v39.2h-11v-36.8c0-13.4-5.3-20.1-15.3-20.1s-10.5,1.9-13.4,5.7c-2.9,3.8-4.8,9.1-4.8,15.8v35.9h-11.5Z"/>
    <path class="st0" d="M1008.2,1058c-7.2,0-12.9-1.9-16.3-5.7-3.3-3.8-5.3-10-5.3-18.2v-33h-14.8v-9.6h14.8v-18.6h11v18.6h22.5v9.6h-22.5v32c0,5.7,1,9.6,2.9,12,1.9,2.4,5.3,3.8,9.6,3.8s8.6-1,12.9-3.3l1.4,9.1c-1.9,1.4-4.3,1.9-7.2,2.9-2.9,1-6.2.5-9.1.5Z"/>
    <path class="st0" d="M1054.6,1058c-3.8,0-8.1-.5-12-1.9-3.8-1.4-7.2-2.4-9.6-4.3l1.9-9.6c2.9,1.9,5.7,3.3,9.6,4.8,3.8,1.4,7.2,1.9,10.5,1.9,4.8,0,8.6-1,11-2.4,2.9-1.9,3.8-3.8,3.8-6.7s-.5-3.3-1.4-4.8c-1-1.4-2.4-2.4-4.8-3.3-2.4-1-5.3-2.4-9.6-3.3-7.2-2.4-12.4-4.8-15.3-7.6-2.9-2.9-4.8-6.7-4.8-12s2.4-10.5,6.7-13.9c4.3-3.3,10-5.3,17.7-5.3s7.2.5,10.5,1.4c3.8,1,6.7,2.4,8.6,3.8l-1.9,9.1c-5.7-3.3-11.5-5.3-18.2-5.3s-7.6,1-10,2.4c-2.4,1.4-3.3,3.8-3.3,6.2s1,4.8,2.9,6.2c1.9,1.4,5.7,2.9,11,4.8,8.1,2.4,13.9,5.3,17.2,8.1s4.8,7.2,4.8,12.4-2.4,10.5-7.2,13.9c-3.8,3.8-10.5,5.3-18.2,5.3Z"/>
    <path class="st0" d="M1154,1058c-5.7,0-11.5-1.4-15.8-4.3-4.8-2.9-8.6-7.2-11-12.4-2.4-5.3-3.8-11-3.8-17.7s1.4-12,4.3-17.2,6.7-9.6,11.5-12.4c4.8-2.9,10.5-4.8,16.3-4.8s9.6,1.4,13.4,3.8c4.3,2.4,7.2,5.7,10,10l.5-12h10.5v64.5h-10.5l-.5-12c-2.4,4.3-6.2,7.6-10,10-3.8,2.4-9.6,4.3-14.8,4.3ZM1156.4,1048.4c4.3,0,8.6-1,12-2.9s6.2-4.8,8.1-8.6c1.9-3.8,2.9-8.1,2.9-12.9s-1-9.1-2.9-12.9c-1.9-3.8-4.8-6.7-8.1-8.6s-7.2-2.9-12-2.9-8.1,1-11.5,2.9c-3.3,1.9-6.2,4.8-8.1,8.6-1.9,3.8-2.9,8.1-2.9,12.9s1,9.1,2.9,12.9c1.9,3.8,4.8,6.7,8.1,8.6,3.3,1.9,7.2,2.9,11.5,2.9Z"/>
    <path class="st0" d="M1228.1,1058c-3.8,0-8.1-.5-12-1.9-3.8-1.4-7.2-2.4-9.6-4.3l1.9-9.6c2.9,1.9,5.7,3.3,9.6,4.8,3.8,1.4,7.2,1.9,10.5,1.9,4.8,0,8.6-1,11-2.4,2.9-1.9,3.8-3.8,3.8-6.7s-.5-3.3-1.4-4.8c-1-1.4-2.4-2.4-4.8-3.3-2.4-1-5.3-2.4-9.6-3.3-7.2-2.4-12.4-4.8-15.3-7.6-2.9-2.9-4.8-6.7-4.8-12s2.4-10.5,6.7-13.9c4.3-3.3,10-5.3,17.7-5.3s7.2.5,10.5,1.4c3.8,1,6.7,2.4,8.6,3.8l-1.9,9.1c-5.7-3.3-11.5-5.3-18.2-5.3s-7.6,1-10,2.4c-2.4,1.4-3.3,3.8-3.3,6.2s1,4.8,2.9,6.2c1.9,1.4,5.7,2.9,11,4.8,8.1,2.4,13.9,5.3,17.2,8.1s4.8,7.2,4.8,12.4-2.4,10.5-7.2,13.9c-3.8,3.8-10.5,5.3-18.2,5.3Z"/>
    <path class="st0" d="M1286.9,1058c-3.8,0-8.1-.5-12-1.9-3.8-1.4-7.2-2.4-9.6-4.3l1.9-9.6c2.9,1.9,5.7,3.3,9.6,4.8,3.8,1.4,7.2,1.9,10.5,1.9,4.8,0,8.6-1,11-2.4,2.9-1.9,3.8-3.8,3.8-6.7s-.5-3.3-1.4-4.8c-1-1.4-2.4-2.4-4.8-3.3-2.4-1-5.3-2.4-9.6-3.3-7.2-2.4-12.4-4.8-15.3-7.6s-4.8-6.7-4.8-12,2.4-10.5,6.7-13.9c4.3-3.3,10-5.3,17.7-5.3s7.2.5,10.5,1.4c3.8,1,6.7,2.4,8.6,3.8l-1.9,9.1c-5.7-3.3-11.5-5.3-18.2-5.3s-7.6,1-10,2.4c-2.4,1.4-3.3,3.8-3.3,6.2s1,4.8,2.9,6.2c1.9,1.4,5.7,2.9,11,4.8,8.1,2.4,13.9,5.3,17.2,8.1,3.3,2.9,4.8,7.2,4.8,12.4s-2.4,10.5-7.2,13.9c-3.8,3.8-10.5,5.3-18.2,5.3Z"/>
    <path class="st0" d="M1361,1058c-6.7,0-12.4-1.4-17.2-4.3-4.8-2.9-9.1-7.2-12-12.4-2.9-5.3-4.3-11-4.3-17.7s1.4-12.4,4.3-17.2c2.9-5.3,7.2-9.1,12.4-12.4,5.3-2.9,11-4.8,17.2-4.8s12.4,1.4,17.2,4.3c5.3,2.9,9.1,7.2,12,12.4,2.9,5.3,4.3,11,4.3,17.7s-1.4,12-4.3,17.2-7.2,9.6-12.4,12.4c-5.3,3.3-11,4.8-17.2,4.8ZM1361,1048.4c4.3,0,8.6-1,12-2.9s6.2-4.8,8.1-8.6c1.9-3.8,2.9-8.1,2.9-12.9s-1-9.1-2.9-12.9c-1.9-3.8-4.8-6.7-8.1-8.6s-7.2-2.9-12-2.9-8.1,1-11.5,2.9c-3.3,1.9-6.2,4.8-8.1,8.6-1.9,3.8-2.9,8.1-2.9,12.9s1,9.1,2.9,12.9c1.9,3.8,4.8,6.7,8.1,8.6,3.3,1.9,7.2,2.9,11.5,2.9Z"/>
    <path class="st0" d="M1445.2,1058c-7.2,0-13.4-1.4-18.6-4.3-5.3-2.9-9.1-6.7-12.4-11.5-2.9-5.3-4.3-11-4.3-17.7s1.4-12.9,4.3-18.2c2.9-5.3,7.2-9.1,12.4-12s11.5-4.3,18.2-4.3,6.7.5,10,1.4c3.3,1,6.2,1.9,9.1,3.3l-1.4,9.6c-2.4-1.4-5.3-2.4-8.6-3.3-3.3-1-6.2-1.4-9.1-1.4-7.2,0-12.9,2.4-17.2,6.7-4.3,4.3-6.7,10-6.7,17.7s2.4,13.4,6.7,17.7c4.3,4.3,10.5,6.2,18.2,6.2s5.7-.5,8.6-1c2.9-.5,6.2-1.9,9.6-3.3l1.4,9.1c-2.9,1.4-5.7,2.9-9.6,3.8-3.3,1-7.2,1.4-10.5,1.4Z"/>
    <path class="st0" d="M1489.6,974.3c-2.4,0-3.8-1-5.3-2.4-1.4-1.4-1.9-3.3-1.9-5.7s.5-4.3,1.9-5.7c1.4-1.4,3.3-2.4,5.3-2.4s3.8,1,5.3,2.4c1.4,1.4,1.9,3.3,1.9,5.7s-.5,4.3-1.9,5.7c-1.4,1.4-3.3,2.4-5.3,2.4ZM1483.9,1056.1v-64.5h11v64.5h-11Z"/>
    <path class="st0" d="M1545.1,1058c-5.7,0-11.5-1.4-15.8-4.3-4.8-2.9-8.6-7.2-11-12.4-2.4-5.3-3.8-11-3.8-17.7s1.4-12,4.3-17.2c2.9-5.3,6.7-9.6,11.5-12.4,4.8-2.9,10.5-4.8,16.3-4.8s9.6,1.4,13.4,3.8c4.3,2.4,7.2,5.7,10,10l.5-12h10.5v64.5h-11l-.5-12c-2.4,4.3-6.2,7.6-10,10s-8.6,4.3-14.3,4.3ZM1548,1048.4c4.3,0,8.6-1,12-2.9,3.3-1.9,6.2-4.8,8.1-8.6,1.9-3.8,2.9-8.1,2.9-12.9s-1-9.1-2.9-12.9c-1.9-3.8-4.8-6.7-8.1-8.6-3.3-1.9-7.2-2.9-12-2.9s-8.1,1-11.5,2.9-6.2,4.8-8.1,8.6c-1.9,3.8-2.9,8.1-2.9,12.9s1,9.1,2.9,12.9c1.9,3.8,4.8,6.7,8.1,8.6s7.2,2.9,11.5,2.9Z"/>
    <path class="st0" d="M1627.3,1058c-7.2,0-12.9-1.9-16.3-5.7-3.3-3.8-5.3-10-5.3-18.2v-33h-14.8v-9.6h14.8v-18.6h11v18.6h22.5v9.6h-22.5v32c0,5.7,1,9.6,2.9,12,1.9,2.4,5.3,3.8,9.6,3.8s8.6-1,12.9-3.3l1.4,9.1c-1.9,1.4-4.3,1.9-7.2,2.9-2.9,1-6.2.5-9.1.5Z"/>
    <path class="st0" d="M1664.1,974.3c-2.4,0-3.8-1-5.3-2.4-1.4-1.4-1.9-3.3-1.9-5.7s.5-4.3,1.9-5.7c1.4-1.4,3.3-2.4,5.3-2.4s3.8,1,5.3,2.4c1.4,1.4,1.9,3.3,1.9,5.7s-.5,4.3-1.9,5.7c-1,1.4-2.9,2.4-5.3,2.4ZM1658.9,1056.1v-64.5h11v64.5h-11Z"/>
    <path class="st0" d="M1722.5,1058c-6.7,0-12.4-1.4-17.2-4.3-4.8-2.9-9.1-7.2-12-12.4-2.9-5.3-4.3-11-4.3-17.7s1.4-12.4,4.3-17.2c2.9-5.3,7.2-9.1,12.4-12.4,5.3-2.9,11-4.8,17.2-4.8s12.4,1.4,17.2,4.3c5.3,2.9,9.1,7.2,12,12.4,2.9,5.3,4.3,11,4.3,17.7s-1.4,12-4.3,17.2c-2.9,5.3-7.2,9.6-12.4,12.4-5.3,3.3-11,4.8-17.2,4.8ZM1722.5,1048.4c4.3,0,8.6-1,12-2.9,3.3-1.9,6.2-4.8,8.1-8.6,1.9-3.8,2.9-8.1,2.9-12.9s-1-9.1-2.9-12.9c-1.9-3.8-4.8-6.7-8.1-8.6-3.3-1.9-7.2-2.9-12-2.9s-8.1,1-11.5,2.9-6.2,4.8-8.1,8.6c-1.9,3.8-2.9,8.1-2.9,12.9s1,9.1,2.9,12.9c1.9,3.8,4.8,6.7,8.1,8.6,2.9,1.9,6.7,2.9,11.5,2.9Z"/>
    <path class="st0" d="M1773.6,1057v-65.5h10.5v11c1.9-4.3,4.8-7.2,8.6-9.6,3.8-2.4,8.1-3.3,12.9-3.3,7.6,0,13.4,2.4,17.7,7.2s6.2,11.5,6.2,20.6v39.2h-11v-36.8c0-13.4-5.3-20.1-15.3-20.1s-10.5,1.9-13.4,5.7c-2.9,3.8-4.8,9.1-4.8,15.8v35.9h-11.5Z"/>
  </g>
</svg>